<?xml version="1.0" encoding="utf-8"?>
<!-- Generator: Adobe Illustrator 27.5.0, SVG Export Plug-In . SVG Version: 6.00 Build 0)  -->
<svg version="1.1" id="Map" xmlns="http://www.w3.org/2000/svg" xmlns:xlink="http://www.w3.org/1999/xlink" x="0px" y="0px"
	 viewBox="0 0 3046 2631" style="enable-background:new 0 0 3046 2631;" xml:space="preserve">
<style type="text/css">
	.st0{fill:#BBF9B2;}
	.st1{fill:#BBF9B2;stroke:#FCFCFC;stroke-width:5;stroke-miterlimit:10;}
	.st2{fill:none;stroke:#FCFCFC;stroke-width:5;stroke-miterlimit:10;}
</style>
<polygon id="E9" points="870,70 950,70 950,230 870,230 "/>
<polygon id="E8" points="1190,70 1190,230 950,230 950,70 "/>
<polygon id="E7" points="1320,70 1320,230 1190,230 1190,70 "/>
<polygon id="E6" points="1550,70 1550,230 1320,230 1320,70 "/>
<polygon id="E5" points="1680,70 1680,230 1550,230 1550,70 "/>
<polygon id="E4" points="1910,70 1910,230 1680,230 1680,70 "/>
<polygon id="E3" points="1910,70 1910,70 1910,230 2050,230 2050,70 "/>
<polygon id="E2" points="2280,70 2280,230 2050,230 2050,70 "/>
<polygon id="E1" points="2360,70 2360,230 2280,230 2280,70 "/>
<polygon id="S7" points="2750,550 2750,630 2910,630 2910,550 "/>
<polygon id="S8" points="2750,860 2910,860 2910,630 2750,630 "/>
<polygon id="S9" points="2910,990 2750,990 2750,860 2910,860 "/>
<polygon id="S10" points="2910,1230 2750,1230 2750,990 2910,990 "/>
<polygon id="S11" points="2910,1360 2750,1360 2750,1230 2910,1230 "/>
<polygon id="S12" points="2910,1590 2750,1590 2750,1360 2910,1360 "/>
<polygon id="S13" points="2750,1670 2750,1590 2910,1590 2910,1670 "/>
<polygon id="N1" points="320,550 320,630 160,630 160,550 "/>
<polygon id="N2" points="320,860 160,860 160,630 320,630 "/>
<polygon id="N3" points="160,990 160,860 320,860 320,990 "/>
<polygon id="N4" points="320,990 160,990 160,1230 320,1230 "/>
<polygon id="N5" points="320,1360 160,1360 160,1230 320,1230 "/>
<polygon id="N6" points="320,1590 160,1590 160,1360 320,1360 "/>
<polygon id="N7" points="320,1670 160,1670 160,1590 320,1590 "/>
<polygon id="WU1" points="2340,2300 2340,2530 2130,2530 2130,2300 "/>
<polygon id="WU2" points="1950,2530 1950,2300 2130,2300 2130,2530 "/>
<polygon id="WU3" points="1770,2490 1770,2300 1950,2300 1950,2490 "/>
<polygon id="WU4" points="1590,2300 1590,2490 1770,2490 1770,2300 "/>
<polygon id="WU5" points="1400,2300 1590,2300 1590,2490 1400,2490 "/>
<polygon id="WU6" points="1400,2300 1220,2300 1220,2490 1400,2490 "/>
<polygon id="WU7" points="1220,2300 1220,2490 1030,2490 1030,2300 "/>
<polygon id="WL1" points="2480,1800 2480,1900 2320,1900 2320,1800 "/>
<polygon id="WL2" points="2140,1800 2320,1800 2320,1900 2140,1900 "/>
<polygon id="WL3" points="2140,1800 2140,1900 1980,1900 1980,1800 "/>
<polygon id="WL4" points="1880,1820 1880,1900 1740,1900 1740,1820 "/>
<polygon id="WL5" points="1600,1900 1600,1820 1740,1820 1740,1900 "/>
<polygon id="WL6" points="1480,1820 1480,1900 1320,1900 1320,1820 "/>
<polygon id="WL7" points="1160,1800 1320,1800 1320,1900 1160,1900 "/>
<polygon id="WL8" points="980,1800 980,1900 1160,1900 1160,1800 "/>
<polygon id="WL9" points="2330,1920 2330,2010 2240,2010 2240,1920 "/>
<polygon id="WL10" points="2050,2010 2050,1920 2240,1920 2240,2010 "/>
<polygon id="WL11" points="1880,1920 2050,1920 2050,2010 1880,2010 "/>
<polygon id="WL12" points="1680,1920 1880,1920 1880,2010 1680,2010 "/>
<polygon id="WL13" points="1510,1920 1680,1920 1680,2010 1510,2010 "/>
<polygon id="WL14" points="1370,1920 1510,1920 1510,2010 1370,2010 "/>
<polygon id="WL15" points="1240,1920 1370,1920 1370,2010 1240,2010 "/>
<polygon id="WL16" points="1070,1920 1240,1920 1240,2010 1070,2010 "/>
<polygon id="WL17" points="970,1920 1070,1920 1070,2010 970,2010 "/>
<polygon id="WL18" points="2330,2030 2330,2120 2240,2120 2240,2030 "/>
<polygon id="WL19" points="2050,2030 2240,2030 2240,2120 2050,2120 "/>
<polygon id="WL20" points="1890,2030 2050,2030 2050,2120 1890,2120 "/>
<polygon id="WL21" points="1680,2030 1890,2030 1890,2120 1680,2120 "/>
<polygon id="WL22" points="1460,2030 1680,2030 1680,2120 1460,2120 "/>
<polygon id="WL23" points="1280,2030 1460,2030 1460,2120 1280,2120 "/>
<polygon id="WL24" points="1070,2030 1280,2030 1280,2120 1070,2120 "/>
<polygon id="WL25" points="960,2030 1070,2030 1070,2180 960,2180 "/>
<polygon id="S1" points="2670,500 2560,500 2560,750 2670,750 "/>
<polygon id="S2" points="2670,750 2560,750 2560,930 2670,930 "/>
<polygon id="S3" points="2670,1110 2560,1110 2560,930 2670,930 "/>
<polygon id="S4" points="2670,1290 2560,1290 2560,1110 2670,1110 "/>
<polygon id="S5" points="2670,1290 2670,1300 2670,1470 2560,1470 2560,1290 "/>
<polygon id="S6" points="2670,1470 2670,1720 2560,1720 2560,1470 "/>
<polygon id="E10" points="2480,310 2480,420 2350,420 2350,310 "/>
<polygon id="E11" points="2170,310 2350,310 2350,420 2170,420 "/>
<polygon id="E12" points="1980,310 2170,310 2170,420 1980,420 "/>
<polygon id="E13" points="1800,310 1980,310 1980,420 1800,420 "/>
<polygon id="E14" points="1620,310 1800,310 1800,420 1620,420 "/>
<polygon id="E15" points="1440,310 1620,310 1620,420 1440,420 "/>
<polygon id="E16" points="1250,310 1440,310 1440,420 1250,420 "/>
<polygon id="E17" points="1070,310 1250,310 1250,420 1070,420 "/>
<polygon id="E18" points="890,310 1070,310 1070,420 890,420 "/>
<polygon id="N8" points="710,310 890,310 890,420 710,420 "/>
<polygon id="N9" points="580,310 710,310 710,420 580,420 "/>
<polygon id="N10" points="580,420 520,480 400,480 580,310 "/>
<polygon id="N11" points="400,480 520,480 520,740 400,740 "/>
<polygon id="N12" points="520,740 520,930 400,930 400,740 "/>
<polygon id="N13" points="520,1110 520,930 400,930 400,1110 "/>
<polygon id="N14" points="520,1290 520,1110 400,1110 400,1290 "/>
<polygon id="N15" points="520,1470 400,1470 400,1290 520,1290 "/>
<polygon id="N16" points="520,1470 400,1470 400,1720 520,1720 "/>
<polygon id="N17" points="580,1910 580,1780 520,1720 400,1720 "/>
<polygon id="N18" points="820,1910 820,1780 580,1780 580,1910 "/>
<polygon id="SB_1" points="2330,2120 1810,2120 1810,2180 2330,2180 "/>
<polygon id="SB_8" points="1770,2180 1810,2180 1810,2120 1770,2120 "/>
<polygon id="SB_9" points="1730,2180 1770,2180 1770,2120 1730,2120 "/>
<polygon id="SB_10" points="1680,2180 1680,2120 1730,2120 1730,2180 "/>
<polygon id="SB_11" points="1600,2180 1600,2120 1680,2120 1680,2180 "/>
<polygon id="SB_12" points="1540,2180 1540,2120 1600,2120 1600,2180 "/>
<polygon id="SB_13" points="1480,2180 1480,2120 1540,2120 1540,2180 "/>
<polygon id="SB_14" points="1360,2180 1400,2180 1400,2120 1360,2120 "/>
<polygon id="SB_15" points="1320,2180 1320,2120 1360,2120 1360,2180 "/>
<polygon id="SB_16" points="1280,2180 1280,2120 1320,2120 1320,2180 "/>
<polygon id="SB_20" points="1160,2180 1160,2120 1070,2120 1070,2180 "/>
<polygon id="SB_17" points="1240,2180 1240,2120 1280,2120 1280,2180 "/>
<polygon id="SB_18" points="1200,2180 1200,2120 1240,2120 1240,2180 "/>
<polygon id="SB_19" points="1160,2180 1160,2120 1200,2120 1200,2180 "/>
<g id="Field">
	<rect x="961.7" y="657.1" class="st0" width="1436.6" height="925.8"/>
	<g>
		<g>
			<rect x="995.9" y="677.9" class="st1" width="1368.1" height="881.7"/>
			<rect x="995.9" y="855.3" class="st2" width="212.8" height="524.4"/>
			<rect x="995.9" y="998.4" class="st2" width="76.1" height="243.3"/>
			<circle class="st2" cx="1679.9" cy="1120" r="121.6"/>
			<g>
				<rect x="2151.3" y="857.9" class="st2" width="212.8" height="524.4"/>
				<rect x="2287.9" y="1002.1" class="st2" width="76.1" height="243.3"/>
			</g>
			<line class="st2" x1="1679.9" y1="1560.8" x2="1679.9" y2="679.2"/>
		</g>
	</g>
</g>
</svg>
