<?xml version="1.0" encoding="utf-8"?>
<!-- Generator: Adobe Illustrator 27.5.0, SVG Export Plug-In . SVG Version: 6.00 Build 0)  -->
<svg version="1.1" id="Map" xmlns="http://www.w3.org/2000/svg" xmlns:xlink="http://www.w3.org/1999/xlink" x="0px" y="0px"
	 viewBox="0 0 2614 3015" style="enable-background:new 0 0 2614 3015;" xml:space="preserve">
<style type="text/css">
	.st0{fill:#BBF9B2;}
	.st1{fill:#BBF9B2;stroke:#FCFCFC;stroke-width:5;stroke-miterlimit:10;}
	.st2{fill:none;stroke:#FCFCFC;stroke-width:5;stroke-miterlimit:10;}
</style>
<polygon id="_x34_01" points="330,750 390,690 600,900 560,940 "/>
<polygon id="_x34_02" points="390,690 510,600 670,840 600,900 "/>
<polygon id="_x34_03" points="510,600 650,530 760,800 670,840 "/>
<polygon id="_x34_04" points="650,530 790,480 850,770 760,800 "/>
<polygon id="_x34_05" points="790,480 950,470 950,760 850,770 "/>
<polygon id="_x34_06" points="950,470 1090,470 1090,760 950,760 "/>
<polygon id="_x34_07" points="1090,470 1220,470 1220,760 1090,760 "/>
<polygon id="_x34_08" points="1220,470 1360,470 1360,760 1220,760 "/>
<polygon id="_x34_09" points="1360,470 1500,470 1500,760 1360,760 "/>
<polygon id="_x34_10" points="1500,470 1660,480 1600,770 1500,760 "/>
<polygon id="_x34_11" points="1660,480 1800,530 1700,800 1600,770 "/>
<polygon id="_x34_12" points="1800,530 1940,600 1780,840 1700,800 "/>
<polygon id="_x34_13" points="1940,600 2060,700 1860,900 1780,840 "/>
<polygon id="_x34_14" points="2060,700 2160,820 2000,930 1890,940 1860,900 "/>
<polygon id="_x34_15" points="2160,820 2210,880 2110,940 2000,930 "/>
<polygon id="_x33_07" points="1900,940 2000,930 2230,940 2250,1060 1940,1060 "/>
<polygon id="_x33_08" points="1940,1060 2250,1060 2250,1190 1940,1190 "/>
<polygon id="_x33_09" points="1940,1190 2250,1190 2250,1350 1940,1350 "/>
<polygon id="_x33_10" points="1940,1350 2250,1350 2250,1510 1940,1510 1940,1380 "/>
<polygon id="_x33_11" points="1940,1510 2250,1510 2250,1670 1940,1670 "/>
<polygon id="_x33_12" points="1940,1670 2250,1670 2250,1790 1940,1792 "/>
<polygon id="_x33_14" points="2090,2140 1890,1910 1930,1840 2230,1930 2190,2030 2140,2100 "/>
<polygon id="_x33_15" points="1870,1930 1890,1910 2090,2140 1980,2220 1920,2100 1950,2090 "/>
<polygon id="_x33_16" points="1980,2220 1850,2250 1800,1930 1820,1930 1900,2110 1920,2100 "/>
<polygon id="_x33_17" points="1730,1930 1800,1930 1850,2250 1730,2260 "/>
<polygon id="_x33_18" points="1630,1930 1730,1930 1730,2260 1630,2260 "/>
<polygon id="_x33_19" points="1470,1930 1630,1930 1630,2260 1470,2260 "/>
<polygon id="_x33_20" points="1310,1930 1470,1930 1470,2210 1310,2210 "/>
<polygon id="_x33_21" points="1150,1930 1310,1930 1310,2210 1150,2210 "/>
<polygon id="_x33_22" points="990,1930 1150,1930 1150,2210 990,2210 "/>
<polygon id="_x33_23" points="830,1930 990,1930 990,2260 830,2260 "/>
<polygon id="_x33_24" points="720,1930 830,1930 830,2260 720,2260 "/>
<polygon id="_x33_25" points="480,2220 610,1920 720,1930 720,2260 580,2250 "/>
<polygon id="_x33_26" points="270,2050 560,1890 610,1920 480,2220 350,2140 "/>
<polygon id="_x32_01" points="380,1800 470,1800 470,1890 380,1890 "/>
<polygon id="_x32_02" points="380,1610 470,1610 470,1800 380,1800 "/>
<polygon id="_x32_03" points="380,1420 470,1420 470,1610 380,1610 "/>
<polygon id="_x32_04" points="380,1230 470,1230 470,1420 380,1420 "/>
<polygon id="_x32_05" points="380,1140 470,1140 470,1230 380,1230 "/>
<polygon id="_x32_06" points="470,970 470,1140 380,1140 380,950 420,950 "/>
<polygon id="_x33_37" points="100,950 310,950 310,1030 100,1030 "/>
<polygon id="_x33_36" points="100,1030 310,1030 310,1130 100,1130 "/>
<polygon id="_x33_35" points="100,1130 310,1130 310,1230 100,1230 "/>
<polygon id="_x33_34" points="100,1230 310,1230 310,1320 100,1320 "/>
<polygon id="_x33_33" points="100,1320 310,1320 310,1420 100,1420 "/>
<polygon id="_x33_32" points="100,1420 310,1420 310,1510 100,1510 "/>
<polygon id="_x33_31" points="100,1510 310,1510 310,1610 100,1610 "/>
<polygon id="_x33_30" points="100,1610 310,1610 310,1710 100,1710 "/>
<polygon id="_x33_29" points="100,1710 310,1710 310,1800 100,1800 "/>
<polygon id="_x33_28" points="100,1800 310,1800 310,1890 100,1890 "/>
<polygon id="_x33_01" points="2320,1030 2540,1030 2540,1110 2320,1110 "/>
<polygon id="_x33_02" points="2320,1110 2540,1110 2540,1270 2320,1270 "/>
<polygon id="_x33_03" points="2320,1270 2540,1270 2540,1430 2320,1430 "/>
<polygon id="_x33_04" points="2320,1430 2540,1430 2540,1590 2320,1590 "/>
<polygon id="_x33_05" points="2320,1590 2540,1590 2540,1750 2320,1750 "/>
<polygon id="_x33_06" points="2320,1750 2540,1750 2540,1830 2320,1830 "/>
<polygon id="_x34_16" points="2100,2210 2120,2180 2250,2250 2220,2290 "/>
<polygon id="_x34_17" points="2110,2380 2030,2290 2100,2210 2220,2290 2190,2340 2150,2390 2120,2410 2110,2420 2090,2400 "/>
<polygon id="_x34_18" points="1940,2350 2030,2290 2110,2380 2090,2400 2110,2420 2050,2460 1990,2490 "/>
<polygon id="_x34_34" points="200,2250 330,2180 350,2210 230,2290 "/>
<polygon id="_x34_33" points="230,2290 350,2210 420,2290 340,2380 310,2360 290,2380 260,2340 "/>
<polygon id="_x34_32" points="420,2290 510,2350 450,2490 360,2430 290,2380 310,2360 340,2380 "/>
<polygon id="_x36_44" points="80,2640 230,2550 260,2590 110,2680 "/>
<polygon id="_x36_43" points="110,2680 260,2590 350,2690 230,2820 160,2760 "/>
<polygon id="_x36_42" points="230,2820 350,2690 400,2730 460,2760 390,2920 270,2850 "/>
<polygon id="_x36_41" points="460,2760 530,2790 590,2810 580,2890 550,2890 530,2970 450,2950 390,2920 "/>
<polygon id="_x36_40" points="590,2810 740,2810 740,2980 610,2980 530,2970 550,2890 580,2890 "/>
<polygon id="_x36_39" points="740,2810 910,2810 910,2980 740,2980 "/>
<polygon id="_x36_38" points="910,2810 1060,2810 1060,2980 910,2980 "/>
<polygon id="_x36_37" points="1060,2810 1220,2810 1220,2980 1060,2980 "/>
<polygon id="_x36_36" points="1220,2810 1380,2810 1380,2980 1220,2980 "/>
<polygon id="_x36_35" points="1380,2810 1540,2810 1540,2980 1380,2980 "/>
<polygon id="_x36_34" points="1540,2810 1700,2810 1700,2980 1540,2980 "/>
<polygon id="_x36_33" points="1700,2810 1810,2810 1850,2810 1860,2890 1830,2900 1830,2980 1700,2980 "/>
<polygon id="_x36_32" points="1850,2810 1980,2770 2060,2930 1920,2970 1830,2980 1830,2900 1860,2890 "/>
<polygon id="_x36_31" points="1980,2770 2100,2700 2210,2820 2170,2850 2100,2910 2060,2930 "/>
<polygon id="_x36_30" points="2100,2700 2190,2590 2340,2690 2210,2820 "/>
<polygon id="_x36_29" points="2190,2590 2220,2550 2370,2630 2340,2690 "/>
<polygon id="_x33_27" points="250,2010 560,1890 270,2050 "/>
<polygon id="_x34_29" points="910,2460 820,2460 820,2530 750,2530 750,2390 910,2390 "/>
<polygon id="_x35_01" points="330,550 390,490 460,550 400,610 "/>
<polygon id="_x35_02" points="390,490 440,440 470,420 530,490 460,550 "/>
<polygon id="_x35_03" points="470,420 550,370 600,440 530,490 "/>
<polygon id="_x35_04" points="550,370 650,320 680,400 600,440 "/>
<polygon id="_x35_05" points="650,320 720,290 790,280 810,365 740,380 680,400 "/>
<polygon id="_x35_09" points="1080,260 1220,260 1220,350 1080,350 "/>
<polygon id="_x35_10" points="1220,260 1370,260 1370,350 1220,350 "/>
<polygon id="_x35_14" points="1650,275 1730,290 1810,320 1770,400 1710,380 1630,360 "/>
<polygon id="_x35_15" points="1810,320 1880,350 1840,430 1770,400 "/>
<polygon id="_x34_28" points="910,2390 1080,2390 1080,2460 910,2460 "/>
<polygon id="_x34_27" points="1080,2390 1230,2390 1230,2460 1080,2460 "/>
<polygon id="_x34_26" points="1230,2390 1290,2390 1290,2460 1230,2460 "/>
<polygon id="_x34_25" points="1290,2390 1370,2390 1370,2460 1290,2460 "/>
<polygon id="_x34_24" points="1370,2390 1460,2390 1460,2460 1370,2460 "/>
<polygon id="_x34_23" points="1460,2390 1540,2390 1540,2460 1460,2460 "/>
<polygon id="SB_601" points="396,376 470,300 496,328 424,404 "/>
<polygon id="SB_609" points="824,132 828,160 776,172 772,144 "/>
<polygon id="SB_610" points="880,124 880,152 828,160 824,132 "/>
<polygon id="SB_611" points="932,124 932,152 880,152 880,124 "/>
<polygon id="SB_612" points="988,124 988,152 932,152 932,124 "/>
<polygon id="SB_613" points="1040,124 1040,152 988,152 988,124 "/>
<polygon id="SB_614" points="1092,124 1092,152 1040,152 1040,124 "/>
<polygon id="SB_615" points="1144,124 1144,152 1092,152 1092,124 "/>
<polygon id="SB_616" points="1200,124 1200,152 1144,152 1144,124 "/>
<polygon id="SB_617" points="1252,124 1252,152 1200,152 1200,124 "/>
<polygon id="SB_618" points="1304,124 1304,152 1252,152 1252,124 "/>
<polygon id="SB_619" points="1304,124 1304,152 1356,152 1356,124 "/>
<polygon id="SB_620" points="1412,124 1412,152 1356,152 1356,124 "/>
<polygon id="SB_621" points="1464,124 1464,152 1412,152 1412,124 "/>
<polygon id="SB_622" points="1516,124 1516,152 1464,152 1464,124 "/>
<polygon id="SB_623" points="1572,124 1568,152 1516,152 1516,124 "/>
<polygon id="SB_624" points="1620,160 1568,152 1572,124 1628,132 "/>
<polygon id="SB_625" points="1680,144 1672,172 1620,160 1628,132 "/>
<polygon id="SB_626" points="1740,160 1728,188 1672,172 1680,144 "/>
<polygon id="SB_627" points="1788,180 1772,208 1728,188 1740,160 "/>
<polygon id="SB_628" points="1844,204 1828,232 1772,208 1788,180 "/>
<polygon id="_x33_13" points="1932,1840 1940,1792 2252,1792 2252,1832 2244,1896 2232,1928 "/>
<polygon id="SB_516" points="2252,2256 2288,2276 2264,2316 2228,2292 "/>
<polygon id="SB_517" points="2208,2324 2244,2348 2264,2316 2228,2292 "/>
<polygon id="SB_518" points="2184,2356 2216,2384 2244,2348 2208,2324 "/>
<polygon id="SB_519" points="2188,2416 2216,2384 2184,2356 2160,2388 "/>
<polygon id="SB_520" points="2160,2440 2188,2416 2160,2388 2132,2412 "/>
<polygon id="SB_521" points="2128,2468 2160,2440 2132,2412 2104,2436 "/>
<polygon id="SB_522" points="2072,2456 2092,2488 2128,2468 2104,2436 "/>
<polygon id="SB_523" points="2056,2512 2092,2488 2072,2456 2036,2476 "/>
<polygon id="SB_524" points="2004,2492 2024,2528 2056,2512 2036,2476 "/>
<polygon id="SB_525" points="1968,2508 1984,2544 2024,2528 2004,2492 "/>
<polygon id="SB_526" points="1944,2560 1984,2544 1968,2508 1932,2524 "/>
<polygon id="SB_527" points="1904,2568 1944,2560 1932,2524 1896,2532 "/>
<polygon id="SB_528" points="1864,2576 1860,2536 1896,2532 1904,2568 "/>
<polygon id="SB_529" points="1820,2536 1860,2536 1864,2576 1820,2576 "/>
<polygon id="SB_530" points="1784,2536 1820,2536 1820,2576 1784,2576 "/>
<polygon id="SB_531" points="1744,2536 1784,2536 1784,2576 1744,2576 "/>
<polygon id="SB_532" points="1708,2536 1744,2536 1744,2576 1708,2576 "/>
<polygon id="SB_533" points="1664,2536 1708,2536 1708,2576 1664,2576 "/>
<polygon id="SB_534" points="1624,2536 1664,2536 1664,2576 1624,2576 "/>
<polygon id="SB_535" points="1588,2536 1624,2536 1624,2576 1588,2576 "/>
<polygon id="SB_536" points="1544,2536 1588,2536 1588,2576 1544,2576 "/>
<polygon id="SB_537" points="1504,2536 1544,2536 1544,2576 1504,2576 "/>
<polygon id="SB_538" points="1464,2536 1504,2536 1504,2576 1464,2576 "/>
<polygon id="SB_539" points="1424,2536 1464,2536 1464,2576 1424,2576 "/>
<polygon id="SB_540" points="1352,2536 1424,2536 1424,2576 1352,2576 "/>
<polygon id="SB_541" points="1108,2536 1108,2576 1028,2576 1028,2536 "/>
<polygon id="SB_542" points="988,2536 1028,2536 1028,2576 988,2576 "/>
<polygon id="SB_543" points="948,2536 988,2536 988,2576 948,2576 "/>
<polygon id="SB_544" points="908,2536 948,2536 948,2576 908,2576 "/>
<polygon id="SB_545" points="868,2536 908,2536 908,2576 868,2576 "/>
<polygon id="SB_546" points="828,2536 868,2536 868,2576 828,2576 "/>
<polygon id="SB_547" points="788,2536 828,2536 828,2576 788,2576 "/>
<polygon id="SB_548" points="748,2536 788,2536 788,2576 748,2576 "/>
<polygon id="SB_549" points="708,2536 748,2536 748,2576 708,2576 "/>
<polygon id="SB_550" points="668,2536 708,2536 708,2576 668,2576 "/>
<polygon id="SB_551" points="632,2536 668,2536 668,2576 632,2576 "/>
<polygon id="SB_552" points="592,2572 632,2576 632,2536 596,2536 "/>
<polygon id="SB_553" points="552,2564 560,2532 596,2536 592,2572 "/>
<polygon id="SB_554" points="508,2556 552,2564 560,2532 520,2524 "/>
<polygon id="SB_555" points="468,2544 484,2512 520,2524 508,2556 "/>
<polygon id="SB_556" points="468,2544 432,2528 448,2496 484,2512 "/>
<polygon id="SB_557" points="396,2512 416,2476 448,2496 432,2528 "/>
<polygon id="SB_558" points="360,2492 384,2456 416,2476 396,2512 "/>
<polygon id="SB_559" points="324,2468 352,2432 384,2456 360,2492 "/>
<polygon id="SB_560" points="296,2444 324,2412 352,2432 324,2468 "/>
<polygon id="SB_561" points="264,2416 296,2444 324,2412 292,2388 "/>
<polygon id="SB_562" points="236,2384 264,2416 292,2388 264,2356 "/>
<polygon id="SB_563" points="212,2352 244,2328 264,2356 236,2384 "/>
<polygon id="SB_564" points="192,2324 228,2300 244,2328 212,2352 "/>
<polygon id="SB_565" points="160,2276 196,2256 228,2300 192,2324 "/>
<polygon id="_x34_21" points="1640,2530 1640,2460 1620,2460 1620,2390 1695,2390 1695,2530 "/>
<g id="Field">
	<rect x="607.1" y="990" class="st0" width="1225.9" height="790"/>
	<g>
		<g>
			<rect x="636.3" y="1007.7" class="st1" width="1167.5" height="752.4"/>
			<rect x="636.3" y="1159.1" class="st2" width="181.6" height="447.5"/>
			<rect x="636.3" y="1281.2" class="st2" width="64.9" height="207.6"/>
			<circle class="st2" cx="1220" cy="1385" r="103.8"/>
			<g>
				<rect x="1622.2" y="1161.3" class="st2" width="181.6" height="447.5"/>
				<rect x="1738.8" y="1284.4" class="st2" width="64.9" height="207.6"/>
			</g>
			<line class="st2" x1="1220" y1="1761.2" x2="1220" y2="1008.8"/>
		</g>
	</g>
</g>
<polygon id="CR_28" points="847.9,288.6 794,297 790,280 845,270 "/>
<polygon id="CR_27" points="850.5,305.9 798.1,314.6 794,297 847.9,288.6 "/>
<polygon id="CR_26" points="853.4,324.4 802.3,332.4 798.1,314.6 850.5,305.9 "/>
<polygon id="CR_25" points="856.2,342.6 806.6,350.4 802.3,332.4 853.4,324.4 "/>
<polygon id="CR_29" points="900,279.1 847.9,288.6 845,270 900,260 "/>
<polygon id="CR_30" points="900,296.8 850.5,305.9 847.9,288.6 900,279.1 "/>
<polygon id="CR_31" points="900,315.9 853.4,324.4 850.5,305.9 900,296.8 "/>
<polygon id="CR_32" points="900,334.7 856.2,342.6 853.4,324.4 900,315.9 "/>
<polygon id="_x35_06" points="810,365 900,350 900,334.7 856.2,342.6 806.6,350.4 "/>
<polygon id="CR_36" points="945,279.3 900,279.1 900,260 945,260 "/>
<polygon id="CR_35" points="945,296.8 900,296.8 900,279.1 945,279.3 "/>
<polygon id="CR_34" points="945,315.5 900,315.9 900,296.8 945,296.8 "/>
<polygon id="CR_33" points="945,333.9 900,334.7 900,315.9 945,315.5 "/>
<polygon id="CR_37" points="990,279.1 945,279.3 945,260 990,260 "/>
<polygon id="CR_38" points="990,296.6 945,296.8 945,279.3 990,279.1 "/>
<polygon id="CR_39" points="990,315.3 945,315.5 945,296.8 990,296.6 "/>
<polygon id="CR_40" points="990,333.8 945,333.9 945,315.5 990,315.3 "/>
<rect id="CR_44" x="990" y="260" width="45" height="19.1"/>
<rect id="CR_45" x="1035" y="260" width="45" height="19.1"/>
<rect id="CR_43" x="990" y="279.3" width="45" height="17.3"/>
<polygon id="CR_46" points="1035,296.6 1080,296.8 1080,279.3 1035,279.3 "/>
<rect id="CR_42" x="990" y="296.6" width="45" height="18.7"/>
<polygon id="CR_47" points="1035,315.3 1080,315.9 1080,296.8 1035,296.6 "/>
<polygon id="CR_41" points="1035,334.7 990,333.8 990,315.3 1035,315.3 "/>
<polygon id="CR_48" points="1035,334.7 1080,334.7 1080,315.9 1035,315.3 "/>
<polygon id="CR_69" points="1600,286.6 1645.6,293.7 1650,275 1602.6,268.7 "/>
<polygon id="CR_70" points="1597.6,304 1641.5,311.2 1645.6,293.7 1600,286.6 "/>
<polygon id="CR_71" points="1594.8,322.5 1637.3,329.1 1641.5,311.2 1597.6,304 "/>
<polygon id="CR_72" points="1592.1,340.7 1633,347.1 1637.3,329.1 1594.8,322.5 "/>
<polygon id="CR_68" points="1550,279.2 1600,286.6 1602.6,268.7 1550,260.1 "/>
<polygon id="CR_67" points="1550,296.9 1597.6,304 1600,286.6 1550,279.2 "/>
<polygon id="CR_66" points="1550,316 1594.8,322.5 1597.6,304 1550,296.9 "/>
<polygon id="CR_65" points="1550,334.7 1592.1,340.7 1594.8,322.5 1550,316 "/>
<polygon id="_x35_13" points="1630,360 1550,350 1550,334.7 1592.1,340.7 1633,347.1 "/>
<polygon id="CR_61" points="1505,279.3 1550,279.2 1550,260.1 1505,260.1 "/>
<polygon id="CR_62" points="1505,296.9 1550,296.9 1550,279.2 1505,279.3 "/>
<polygon id="CR_63" points="1505,315.5 1550,316 1550,296.9 1505,296.9 "/>
<polygon id="CR_64" points="1505,334 1550,334.7 1550,316 1505,315.5 "/>
<polygon id="CR_60" points="1460,279 1505,279.2 1505,259.9 1460,259.9 "/>
<polygon id="CR_59" points="1460,296.6 1505,296.8 1505,279.2 1460,279.1 "/>
<polygon id="CR_58" points="1460,315.3 1505,315.4 1505,296.7 1460,296.5 "/>
<polygon id="CR_57" points="1460,333.8 1505,333.9 1505,315.5 1460,315.3 "/>
<rect id="CR_53" x="1415" y="260" transform="matrix(-1 -4.488866e-11 4.488866e-11 -1 2875 539.0903)" width="45" height="19.1"/>
<rect id="CR_52" x="1370" y="260" transform="matrix(-1 -4.490864e-11 4.490864e-11 -1 2785 539.0903)" width="45" height="19.1"/>
<rect id="CR_54" x="1415" y="279.3" width="45" height="17.3"/>
<polygon id="CR_51" points="1415,296.4 1370,296.7 1370,279.1 1415,279.1 "/>
<rect id="CR_55" x="1415" y="296.6" width="45" height="18.7"/>
<polygon id="CR_50" points="1415,315.1 1370,315.7 1370,296.6 1415,296.3 "/>
<polygon id="CR_56" points="1415,334.7 1460,333.8 1460,315.3 1415,315.3 "/>
<polygon id="CR_49" points="1415,334.4 1370,334.4 1370,315.7 1415,315.1 "/>
<polygon id="_x34_19" points="1835,2385 1940,2350 1990,2490 1855,2530 "/>
<polygon id="_x34_20" points="1695,2390 1835,2385 1855,2530 1695,2530 "/>
<rect id="_x34_22" x="1540" y="2390" width="80" height="70"/>
<polygon id="_x35_07" points="900,350 990,350 990,333.8 900,334.7 "/>
<polygon id="_x35_08" points="1080,350 990,350 990,333.8 1080,334.7 "/>
<polygon id="_x35_11" points="1370,350 1460,350 1460,333.8 1370,334.4 "/>
<polygon id="_x35_12" points="1460,350 1550,350 1550,334.7 1460,333.8 "/>
<polygon id="SB_603" points="470,300 520,260 540,288 496,328 "/>
<polygon id="SB_604" points="520,260 564,232 580,260 540,288 "/>
<polygon id="SB_605" points="564,232 612,204 628,232 580,260 "/>
<polygon id="SB_606" points="664,180 676,208 628,232 612,204 "/>
<polygon id="SB_607" points="664,180 712,160 724,188 676,208 "/>
<polygon id="SB_608" points="712,160 772,144 776,172 724,188 "/>
</svg>
