<?xml version="1.0" encoding="utf-8"?>
<!-- Generator: Adobe Illustrator 27.5.0, SVG Export Plug-In . SVG Version: 6.00 Build 0)  -->
<svg version="1.1" id="Map" xmlns="http://www.w3.org/2000/svg" xmlns:xlink="http://www.w3.org/1999/xlink" x="0px" y="0px"
	 viewBox="0 0 3622 2895" style="enable-background:new 0 0 3622 2895;" xml:space="preserve">
<style type="text/css">
	.st0{fill:#BBF9B2;}
	.st1{fill:#BBF9B2;stroke:#FCFCFC;stroke-width:5;stroke-miterlimit:10;}
	.st2{fill:none;stroke:#FCFCFC;stroke-width:5;stroke-miterlimit:10;}
</style>
<polygon id="_x33_01" points="1580,1980 1810,1980 1810,2300 1580,2300 "/>
<polygon id="_x33_02" points="2050,2300 1810,2300 1810,1980 2050,1980 "/>
<polygon id="_x33_03" points="2280,1980 2280,2300 2050,2300 2050,1980 "/>
<polygon id="_x33_04" points="2280,1980 2520,1980 2520,2300 2280,2300 "/>
<polygon id="_x33_05" points="2630,2040 2710,2240 2650,2270 2650,2300 2520,2300 2520,1980 2570,1980 "/>
<polygon id="_x33_06" points="2730,2080 2810,2170 2710,2240 2630,2040 2700,2110 "/>
<polygon id="_x33_07" points="2880,2060 2810,2170 2730,2080 2750,2060 2690,1990 "/>
<polygon id="_x33_08" points="2630,1930 2910,1930 2880,2060 2690,1990 "/>
<polygon id="_x33_09" points="2910,1760 2910,1930 2630,1930 2630,1760 "/>
<polygon id="_x33_10" points="2630,1580 2910,1580 2910,1760 2630,1760 "/>
<polygon id="_x33_11" points="2630,1400 2910,1400 2910,1580 2630,1580 "/>
<polygon id="_x33_12" points="2630,1220 2910,1220 2910,1400 2630,1400 "/>
<polygon id="_x33_13" points="2630,1050 2910,1050 2910,1220 2630,1220 "/>
<polygon id="_x33_15" points="2720,980 2710,950 2750,910 2730,890 2820,800 2890,900 "/>
<polygon id="_x33_16" points="2590,980 2640,880 2710,730 2820,800 2730,890 2710,870 "/>
<polygon id="_x33_17" points="2530,980 2590,980 2710,730 2650,710 2650,640 2530,640 "/>
<polygon id="_x33_18" points="2260,640 2530,640 2530,980 2350,980 2350,710 2260,710 "/>
<polygon id="_x33_19" points="2170,710 2350,710 2350,980 2170,980 "/>
<polygon id="_x33_20" points="1990,710 2170,710 2170,980 1990,980 "/>
<polygon id="_x33_21" points="1810,980 1810,710 1990,710 1990,980 "/>
<polygon id="_x33_22" points="1630,980 1810,980 1810,710 1630,710 "/>
<polygon id="_x33_23" points="1450,710 1630,710 1630,980 1450,980 "/>
<polygon id="_x33_24" points="1360,710 1450,710 1450,980 1270,980 1270,640 1360,640 "/>
<polygon id="_x33_25" points="1090,980 1090,640 1270,640 1270,980 "/>
<polygon id="_x33_26" points="920,730 970,710 970,640 1090,640 1090,980 1020,980 "/>
<polygon id="_x33_27" points="910,860 890,880 810,800 920,730 1020,980 "/>
<polygon id="_x33_28" points="870,900 920,950 910,970 740,900 810,800 890,880 "/>
<polygon id="_x33_29" points="990,1030 990,1050 720,1050 740,900 910,970 920,950 "/>
<polygon id="_x33_30" points="990,1050 990,1210 720,1210 720,1050 "/>
<polygon id="_x33_31" points="990,1390 720,1390 720,1210 990,1210 "/>
<polygon id="_x33_32" points="990,1570 720,1570 720,1390 990,1390 "/>
<polygon id="_x33_33" points="990,1750 720,1750 720,1570 990,1570 "/>
<polygon id="_x33_34" points="990,1750 990,1920 720,1920 720,1750 "/>
<polygon id="_x33_35" points="720,1920 990,1920 920,2010 910,1990 740,2060 "/>
<polygon id="_x33_36" points="740,2060 910,1990 920,2010 860,2070 880,2090 810,2160 "/>
<polygon id="_x33_37" points="910,2120 880,2090 810,2160 910,2230 1000,2030 "/>
<polygon id="_x33_38" points="1050,1980 1000,2030 910,2230 980,2260 980,2300 1100,2300 1100,1980 "/>
<polygon id="_x33_39" points="1100,1980 1340,1980 1340,2300 1100,2300 "/>
<polygon id="_x33_40" points="1340,1980 1580,1980 1580,2300 1340,2300 "/>
<polygon id="_x35_06" points="2920,2190 3010,2320 3080,2250 2970,2140 "/>
<polygon id="_x35_07" points="3030,2050 3170,2110 3130,2200 3080,2250 2970,2140 3000,2110 "/>
<polygon id="_x35_08" points="3200,1920 3200,2030 3170,2110 3030,2050 3050,2000 3050,1920 "/>
<polygon id="_x35_09" points="3200,1760 3200,1920 3050,1920 3050,1760 "/>
<polygon id="_x35_13" points="3050,1050 3200,1050 3200,1220 3050,1220 "/>
<polygon id="_x35_14" points="3020,900 3160,840 3200,940 3200,1050 3050,1050 3050,970 "/>
<polygon id="_x35_15" points="3130,770 3160,840 3020,900 3000,860 2950,810 3060,700 "/>
<polygon id="_x35_16" points="3060,700 2950,810 2910,770 2850,750 2910,610 3000,640 "/>
<polygon id="_x35_18" points="2340,420 2500,420 2500,430 2530,430 2530,540 2350,540 2340,540 2340,440 "/>
<polygon id="_x35_24" points="1450,540 1280,540 1280,440 1260,440 1260,420 1450,420 "/>
<polygon id="_x35_25" points="1060,390 1120,390 1120,420 1260,420 1260,440 1280,440 1280,540 1090,540 1090,430 1060,430 "/>
<polygon id="_x35_26" points="1090,430 1090,540 980,540 940,560 880,420 950,390 1060,390 1060,430 "/>
<polygon id="_x35_27" points="770,750 710,610 620,650 570,700 680,800 710,770 "/>
<polygon id="_x35_28" points="570,700 680,800 620,860 600,900 470,840 500,770 "/>
<polygon id="_x35_29" points="600,900 570,970 570,1050 430,1050 430,940 470,840 "/>
<polygon id="_x35_30" points="570,1050 570,1220 430,1220 430,1050 "/>
<polygon id="_x35_31" points="570,1220 570,1310 520,1350 430,1350 430,1220 "/>
<polygon id="_x35_33" points="520,1620 570,1660 570,1750 430,1750 430,1620 "/>
<polygon id="_x35_34" points="570,1920 430,1920 430,1750 570,1750 "/>
<polygon id="_x35_35" points="570,2000 590,2040 460,2090 430,2030 430,1920 570,1920 "/>
<polygon id="_x35_36" points="590,2040 620,2110 700,2190 620,2310 500,2190 460,2090 "/>
<polygon id="_x36_01" points="1580,2630 1580,2830 1810,2830 1810,2630 "/>
<polygon id="_x36_02" points="1810,2630 2040,2630 2040,2830 1810,2830 "/>
<polygon id="_x36_03" points="2040,2630 2280,2630 2280,2830 2040,2830 "/>
<polygon id="_x36_04" points="2280,2630 2640,2630 2640,2830 2280,2830 "/>
<polygon id="_x36_38" points="980,2630 1140,2630 1140,2830 980,2830 "/>
<polygon id="_x36_39" points="1140,2630 1340,2630 1340,2830 1140,2830 "/>
<polygon id="_x36_40" points="1340,2630 1580,2630 1580,2830 1340,2830 "/>
<polygon id="_x37_04" points="3180,2300 3220,2350 3300,2270 3250,2230 "/>
<polygon id="_x37_05" points="3300,2180 3250,2230 3300,2270 3350,2220 3390,2120 3340,2100 "/>
<polygon id="_x37_06" points="3340,2100 3390,2120 3420,2040 3420,2010 3370,2010 3370,2030 "/>
<polygon id="_x37_07" points="3420,2010 3370,2010 3370,1850 3550,1850 3550,1930 3420,1930 "/>
<polygon id="_x37_08" points="3370,1670 3550,1670 3550,1850 3370,1850 "/>
<polygon id="_x37_09" points="3370,1490 3550,1490 3550,1670 3370,1670 "/>
<polygon id="_x37_10" points="3370,1310 3550,1310 3550,1490 3370,1490 "/>
<polygon id="_x37_11" points="3550,1130 3550,1310 3370,1310 3370,1130 "/>
<polygon id="_x37_12" points="3550,1040 3550,1130 3370,1130 3370,990 3420,990 3420,1040 "/>
<polygon id="_x37_13" points="3340,860 3380,840 3420,940 3420,990 3370,990 3370,950 "/>
<polygon id="_x37_14" points="3280,680 3340,750 3380,840 3340,860 3300,780 3240,720 "/>
<polygon id="_x37_15" points="3240,720 3180,660 3100,630 3120,580 3210,610 3280,680 "/>
<polygon id="_x37_16" points="1703020,350550 1703040,350550 1703120,350580 1703100,350630 1703020,350600 "/>
<polygon id="_x37_17" points="2520,70 2660,70 2660,250 2520,250 "/>
<polygon id="_x37_18" points="2360,250 2360,70 2520,70 2520,250 "/>
<polygon id="_x37_19" points="2180,70 2360,70 2360,250 2180,250 "/>
<polygon id="_x37_20" points="2000,70 2180,70 2180,250 2000,250 "/>
<polygon id="_x37_21" points="1820,70 2000,70 2000,250 1820,250 "/>
<polygon id="_x37_22" points="1640,70 1820,70 1820,250 1640,250 "/>
<polygon id="_x37_23" points="1460,70 1640,70 1640,250 1460,250 "/>
<polygon id="_x37_24" points="1280,70 1460,70 1460,250 1280,250 "/>
<polygon id="_x37_25" points="1090,70 1280,70 1280,250 1090,250 "/>
<polygon id="_x37_26" points="960,70 1090,70 1090,250 960,250 "/>
<polygon id="_x37_27" points="610,550 610,600 600,600 530,630 510,580 580,550 "/>
<polygon id="_x37_28" points="510,580 530,630 440,670 390,720 350,680 410,620 "/>
<polygon id="_x37_29" points="390,720 320,790 300,850 240,830 270,760 350,680 "/>
<polygon id="_x37_30" points="260,960 260,940 300,850 240,830 200,930 200,960 "/>
<polygon id="_x37_31" points="200,1040 200,960 260,960 260,1130 70,1130 70,1040 "/>
<polygon id="_x37_32" points="260,1130 260,1300 70,1300 70,1130 "/>
<polygon id="_x37_33" points="260,1480 70,1480 70,1300 260,1300 "/>
<polygon id="_x37_34" points="260,1480 260,1660 70,1660 70,1480 "/>
<polygon id="_x37_35" points="260,1660 260,1840 70,1840 70,1660 "/>
<polygon id="_x37_36" points="260,2010 260,1840 70,1840 70,1930 200,1930 200,2010 "/>
<polygon id="_x37_37" points="290,2090 230,2110 200,2040 200,2010 260,2010 260,2030 "/>
<polygon id="_x37_38" points="270,2210 410,2350 440,2300 320,2180 290,2090 230,2110 "/>
<polygon id="_x35_23" points="1630,420 1630,540 1450,540 1450,420 "/>
<polygon id="_x35_19" points="2170,420 2340,420 2340,540 2170,540 "/>
<polygon id="_x35_20" points="1980,420 2170,420 2170,540 1980,540 "/>
<polygon id="_x35_21" points="1810,420 1980,420 1980,540 1810,540 "/>
<polygon id="_x35_22" points="1630,420 1810,420 1810,540 1630,540 "/>
<polygon id="SB_W401" points="980,2300 1040,2300 1040,2390 980,2390 "/>
<polygon id="SB_W402" points="1040,2300 1100,2300 1100,2390 1040,2390 "/>
<polygon id="SB_W403" points="1160,2390 1160,2300 1100,2300 1100,2390 "/>
<polygon id="SB_W404" points="1220,2300 1220,2390 1160,2390 1160,2300 "/>
<polygon id="SB_W405" points="1280,2300 1280,2390 1220,2390 1220,2300 "/>
<polygon id="SB_W406" points="1340,2300 1340,2390 1280,2390 1280,2300 "/>
<polygon id="SB_W407" points="1400,2300 1400,2390 1340,2390 1340,2300 "/>
<polygon id="SB_W408" points="1460,2300 1460,2390 1400,2390 1400,2300 "/>
<polygon id="SB_W409" points="1520,2300 1520,2390 1460,2390 1460,2300 "/>
<polygon id="SB_W411" points="1580,2300 1580,2390 1520,2390 1520,2300 "/>
<polygon id="VIP" points="2030,2300 2030,2390 1600,2390 1600,2300 "/>
<polygon id="SB_W420" points="2050,2300 2050,2390 2110,2390 2110,2300 "/>
<polygon id="SB_W422" points="2110,2390 2110,2300 2170,2300 2170,2390 "/>
<polygon id="SB_W423" points="2230,2300 2230,2390 2170,2390 2170,2300 "/>
<polygon id="SB_W424" points="2280,2390 2230,2390 2230,2300 2280,2300 "/>
<polygon id="SB_W425" points="2340,2300 2340,2390 2280,2390 2280,2300 "/>
<polygon id="SB_W426" points="2400,2390 2340,2390 2340,2300 2400,2300 "/>
<polygon id="SB_W427" points="2460,2390 2460,2300 2400,2300 2400,2390 "/>
<polygon id="SB_W428" points="2520,2300 2520,2390 2460,2390 2460,2300 "/>
<polygon id="SB_W429" points="2580,2300 2580,2390 2520,2390 2520,2300 "/>
<polygon id="SB_W430" points="2650,2390 2580,2390 2580,2300 2650,2300 "/>
<polygon id="SB_W523" points="2650,2440 2650,2580 2520,2580 2520,2440 "/>
<polygon id="BOX_W564" points="2490,2440 2520,2440 2520,2540 2490,2540 "/>
<polygon id="BOX_W563" points="2460,2440 2490,2440 2490,2540 2460,2540 "/>
<polygon id="SB_W522" points="2460,2580 2460,2540 2520,2540 2520,2580 "/>
<polygon id="BOX_W561" points="2400,2440 2430,2440 2430,2540 2400,2540 "/>
<polygon id="SB_W521" points="2400,2580 2460,2580 2460,2540 2400,2540 "/>
<polygon id="BOX_W560" points="2370,2440 2400,2440 2400,2540 2370,2540 "/>
<polygon id="BOX_W559" points="2340,2440 2370,2440 2370,2540 2340,2540 "/>
<polygon id="SB_W520" points="2340,2580 2400,2580 2400,2540 2340,2540 "/>
<polygon id="BOX_W558" points="2310,2440 2310,2540 2340,2540 2340,2440 "/>
<polygon id="BOX_W557" points="2280,2440 2310,2440 2310,2540 2280,2540 "/>
<polygon id="SB_W519B" points="2300,2580 2340,2580 2340,2540 2300,2540 "/>
<polygon id="SB_W519A" points="2250,2580 2250,2540 2300,2540 2300,2580 "/>
<polygon id="SB_W518" points="2250,2580 2250,2540 2220,2540 2220,2580 "/>
<polygon id="BOX_W553" points="2170,2440 2200,2440 2200,2540 2170,2540 "/>
<polygon id="SB_W517" points="2170,2580 2210,2580 2210,2540 2170,2540 "/>
<polygon id="BOX_W552" points="2140,2440 2170,2440 2170,2540 2140,2540 "/>
<polygon id="BOX_W551" points="2110,2440 2140,2440 2140,2540 2110,2540 "/>
<polygon id="SB_W516" points="2110,2580 2170,2580 2170,2540 2110,2540 "/>
<polygon id="BOX_W549" points="2050,2440 2080,2440 2080,2540 2050,2540 "/>
<polygon id="BOX_W550" points="2080,2440 2110,2440 2110,2540 2080,2540 "/>
<polygon id="SB_W515" points="2060,2580 2110,2580 2110,2540 2060,2540 "/>
<polygon id="VVIP_513_x2F_514" points="2050,2540 2060,2540 2060,2560 1910,2560 1910,2440 2050,2440 "/>
<polygon id="VVIP_512" points="1810,2440 1910,2440 1910,2560 1810,2560 "/>
<polygon id="SB_W511" points="1810,2540 1810,2580 1640,2580 1640,2540 "/>
<polygon id="BOX_W546" points="1780,2440 1780,2540 1810,2540 1810,2440 "/>
<polygon id="BOX_W545" points="1750,2440 1750,2540 1780,2540 1780,2440 "/>
<polygon id="BOX_W544" points="1720,2440 1720,2540 1750,2540 1750,2440 "/>
<polygon id="BOX_W540" points="1580,2440 1610,2440 1610,2540 1580,2540 "/>
<polygon id="SB_W510" points="1590,2540 1640,2540 1640,2580 1590,2580 "/>
<polygon id="SB_W509B" points="1550,2580 1550,2540 1590,2540 1590,2580 "/>
<polygon id="SB_W501" points="980,2440 1100,2440 1100,2580 980,2580 "/>
<polygon id="SB_W502" points="1100,2540 1160,2540 1160,2580 1100,2580 "/>
<polygon id="SB_W503" points="1220,2540 1220,2580 1160,2580 1160,2540 "/>
<polygon id="SB_W504" points="1270,2540 1270,2580 1220,2580 1220,2540 "/>
<polygon id="SB_W505" points="1310,2540 1270,2540 1270,2580 1310,2580 "/>
<polygon id="SB_W506" points="1310,2580 1350,2580 1350,2540 1310,2540 "/>
<polygon id="SB_W507" points="1400,2540 1400,2580 1350,2580 1350,2540 "/>
<polygon id="SB_W509A" points="1500,2540 1550,2540 1550,2580 1500,2580 "/>
<polygon id="SB_W508A" points="1450,2540 1400,2540 1400,2580 1450,2580 "/>
<polygon id="SB_W508B" points="1450,2540 1500,2540 1500,2580 1450,2580 "/>
<polygon id="BOX_W524" points="1130,2440 1100,2440 1100,2540 1130,2540 "/>
<polygon id="BOX_W525" points="1160,2440 1160,2540 1130,2540 1130,2440 "/>
<polygon id="BOX_W527" points="1220,2440 1220,2540 1190,2540 1190,2440 "/>
<polygon id="BOX_W530" points="1310,2440 1310,2540 1280,2540 1280,2440 "/>
<polygon id="BOX_W531" points="1340,2440 1340,2540 1310,2540 1310,2440 "/>
<polygon id="BOX_W532" points="1370,2540 1340,2540 1340,2440 1370,2440 "/>
<polygon id="BOX_W533" points="1400,2440 1400,2540 1370,2540 1370,2440 "/>
<polygon id="BOX_W534" points="1430,2440 1430,2540 1400,2540 1400,2440 "/>
<polygon id="BOX_W535" points="1460,2440 1460,2540 1430,2540 1430,2440 "/>
<polygon id="BOX_W536" points="1490,2440 1490,2540 1460,2540 1460,2440 "/>
<polygon id="BOX_W537" points="1520,2440 1520,2540 1490,2540 1490,2440 "/>
<polygon id="BOX_E490" points="1360,620 1400,620 1400,650 1360,650 "/>
<polygon id="BOX_E431" points="2260,680 2220,680 2220,710 2260,710 "/>
<polygon id="BOX_E432" points="2220,650 2260,650 2260,680 2220,680 "/>
<polygon id="BOX_E433" points="2220,620 2260,620 2260,650 2220,650 "/>
<polygon id="BOX_E434" points="2180,710 2180,680 2220,680 2220,710 "/>
<polygon id="BOX_E435" points="2180,650 2220,650 2220,680 2180,680 "/>
<polygon id="BOX_E436" points="2180,620 2220,620 2220,650 2180,650 "/>
<polygon id="BOX_E437" points="2140,710 2140,680 2180,680 2180,710 "/>
<polygon id="BOX_E438" points="2140,650 2180,650 2180,680 2140,680 "/>
<polygon id="BOX_E439" points="2140,620 2180,620 2180,650 2140,650 "/>
<polygon id="BOX_E440" points="2100,710 2100,680 2140,680 2140,710 "/>
<polygon id="BOX_E441" points="2100,650 2140,650 2140,680 2100,680 "/>
<polygon id="BOX_E442" points="2100,620 2140,620 2140,650 2100,650 "/>
<polygon id="BOX_E443" points="2060,680 2100,680 2100,710 2060,710 "/>
<polygon id="BOX_E444" points="2060,650 2100,650 2100,680 2060,680 "/>
<polygon id="BOX_E445" points="2060,620 2100,620 2100,650 2060,650 "/>
<polygon id="BOX_E446" points="2020,680 2020,710 2060,710 2060,680 "/>
<polygon id="BOX_E447" points="2020,650 2060,650 2060,680 2020,680 "/>
<polygon id="BOX_E448" points="2020,620 2060,620 2060,650 2020,650 "/>
<polygon id="BOX_E449" points="1980,680 1980,710 2020,710 2020,680 "/>
<polygon id="BOX_E450" points="1980,650 2020,650 2020,680 1980,680 "/>
<polygon id="BOX_E451" points="1980,620 2020,620 2020,650 1980,650 "/>
<polygon id="BOX_E452" points="1940,680 1980,680 1980,710 1940,710 "/>
<polygon id="BOX_E453" points="1940,650 1980,650 1980,680 1940,680 "/>
<polygon id="BOX_E454" points="1940,620 1980,620 1980,650 1940,650 "/>
<polygon id="BOX_E455" points="1900,680 1900,710 1940,710 1940,680 "/>
<polygon id="BOX_E456" points="1900,650 1900,680 1940,680 1940,650 "/>
<polygon id="BOX_E457" points="1900,620 1940,620 1940,650 1900,650 "/>
<polygon id="BOX_E458" points="1850,710 1850,680 1900,680 1900,710 "/>
<polygon id="BOX_E459" points="1850,650 1900,650 1900,680 1850,680 "/>
<polygon id="BOX_E460" points="1850,620 1900,620 1900,650 1850,650 "/>
<polygon id="BOX_E461" points="1770,710 1770,680 1720,680 1720,710 "/>
<polygon id="BOX_E462" points="1720,650 1770,650 1770,680 1720,680 "/>
<polygon id="BOX_E463" points="1720,620 1770,620 1770,650 1720,650 "/>
<polygon id="BOX_E464" points="1680,680 1680,710 1720,710 1720,680 "/>
<polygon id="BOX_E465" points="1680,650 1720,650 1720,680 1680,680 "/>
<polygon id="BOX_E466" points="1680,620 1720,620 1720,650 1680,650 "/>
<polygon id="BOX_E467" points="1640,680 1680,680 1680,710 1640,710 "/>
<polygon id="BOX_E468" points="1640,650 1680,650 1680,680 1640,680 "/>
<polygon id="BOX_E469" points="1640,620 1680,620 1680,650 1640,650 "/>
<polygon id="BOX_E470" points="1600,680 1640,680 1640,710 1600,710 "/>
<polygon id="BOX_E471" points="1600,650 1640,650 1640,680 1600,680 "/>
<polygon id="BOX_E472" points="1600,620 1640,620 1640,650 1600,650 "/>
<polygon id="BOX_E473" points="1560,680 1600,680 1600,710 1560,710 "/>
<polygon id="BOX_E474" points="1560,650 1600,650 1600,680 1560,680 "/>
<polygon id="BOX_E475" points="1560,620 1600,620 1600,650 1560,650 "/>
<polygon id="BOX_E476" points="1520,680 1520,710 1560,710 1560,680 "/>
<polygon id="BOX_E477" points="1520,650 1560,650 1560,680 1520,680 "/>
<polygon id="BOX_E478" points="1520,620 1560,620 1560,650 1520,650 "/>
<polygon id="BOX_E479" points="1480,680 1480,710 1520,710 1520,680 "/>
<polygon id="BOX_E480" points="1480,650 1480,680 1520,680 1520,650 "/>
<polygon id="BOX_E481" points="1480,620 1520,620 1520,650 1480,650 "/>
<polygon id="BOX_E482" points="1440,680 1440,710 1480,710 1480,680 "/>
<polygon id="BOX_E483" points="1440,650 1440,680 1480,680 1480,650 "/>
<polygon id="BOX_E484" points="1440,620 1480,620 1480,650 1440,650 "/>
<polygon id="BOX_E485" points="1400,680 1440,680 1440,710 1400,710 "/>
<polygon id="BOX_E486" points="1400,650 1440,650 1440,680 1400,680 "/>
<polygon id="BOX_E487" points="1400,620 1440,620 1440,650 1400,650 "/>
<polygon id="BOX_E488" points="1360,680 1400,680 1400,710 1360,710 "/>
<polygon id="BOX_E489" points="1360,650 1400,650 1400,680 1360,680 "/>
<polygon id="SB_E600" points="2410,370 2500,370 2500,420 2410,420 "/>
<polygon id="SB_E601" points="2340,370 2410,370 2410,420 2340,420 "/>
<polygon id="SB_E602" points="2300,370 2340,370 2340,420 2300,420 "/>
<polygon id="SB_E603" points="2260,370 2300,370 2300,420 2260,420 "/>
<polygon id="SB_E604" points="2220,370 2260,370 2260,420 2220,420 "/>
<polygon id="SB_E605" points="2170,370 2220,370 2220,420 2170,420 "/>
<polygon id="SB_E606" points="2120,370 2120,420 2170,420 2170,370 "/>
<polygon id="SB_E607" points="2070,370 2120,370 2120,420 2070,420 "/>
<polygon id="SB_E608" points="2020,370 2070,370 2070,420 2020,420 "/>
<polygon id="SB_E609" points="1980,370 2020,370 2020,420 1980,420 "/>
<polygon id="SB_E610" points="1940,370 1980,370 1980,420 1940,420 "/>
<polygon id="SB_E611" points="1900,370 1940,370 1940,420 1900,420 "/>
<polygon id="SB_E612" points="1860,370 1900,370 1900,420 1860,420 "/>
<polygon id="SB_E613" points="1810,370 1860,370 1860,420 1810,420 "/>
<polygon id="SB_E614" points="1760,370 1760,420 1810,420 1810,370 "/>
<polygon id="SB_E615" points="1710,370 1760,370 1760,420 1710,420 "/>
<polygon id="SB_E616" points="1670,370 1710,370 1710,420 1670,420 "/>
<polygon id="SB_E617" points="1630,370 1670,370 1670,420 1630,420 "/>
<polygon id="SB_E618" points="1580,370 1630,370 1630,420 1580,420 "/>
<polygon id="SB_E619" points="1530,370 1580,370 1580,420 1530,420 "/>
<polygon id="SB_E620" points="1490,370 1530,370 1530,420 1490,420 "/>
<polygon id="SB_E621" points="1450,370 1490,370 1490,420 1450,420 "/>
<polygon id="SB_E622" points="1410,370 1450,370 1450,420 1410,420 "/>
<polygon id="SB_E623" points="1370,370 1410,370 1410,420 1370,420 "/>
<polygon id="SB_E624" points="1330,370 1370,370 1370,420 1330,420 "/>
<polygon id="SB_E625" points="1280,370 1330,370 1330,420 1280,420 "/>
<polygon id="SB_E626" points="1220,370 1280,370 1280,420 1220,420 "/>
<polygon id="SB_E627" points="1130,370 1220,370 1220,420 1130,420 "/>
<polygon id="_x35_17" points="2720,420 2770,450 2700,560 2660,540 2530,540 2530,420 "/>
<g id="Field">
	<rect x="1160.3" y="1061.2" class="st0" width="1299.4" height="837.4"/>
	<g>
		<g>
			<rect x="1191.2" y="1080" class="st1" width="1237.5" height="797.5"/>
			<rect x="1191.2" y="1240.4" class="st2" width="192.5" height="474.4"/>
			<rect x="1191.2" y="1369.9" class="st2" width="68.8" height="220"/>
			<circle class="st2" cx="1810" cy="1479.9" r="110"/>
			<g>
				<rect x="2236.3" y="1242.7" class="st2" width="192.5" height="474.4"/>
				<rect x="2359.9" y="1373.3" class="st2" width="68.8" height="220"/>
			</g>
			<line class="st2" x1="1810" y1="1878.7" x2="1810" y2="1081.2"/>
		</g>
	</g>
</g>
<polygon id="_x33_14" points="2710,950 2630,1030 2630,1050 2910,1050 2890,900 2720,980 "/>
<polygon id="_x35_12" points="3050,1220 3200,1220 3200,1360 3090,1360 3050,1310 "/>
<polygon id="_x35_10" points="3200,1610 3200,1760 3050,1760 3050,1650 3090,1610 "/>
<rect id="SBOXW556" x="2250" y="2440" width="30" height="100"/>
<rect id="BOXW555" x="2230" y="2440" width="20" height="100"/>
<rect id="BOXW554" x="2200" y="2440" width="30" height="100"/>
<rect id="BOXW543" x="1680" y="2440" width="40" height="100"/>
<rect id="BOXW542" x="1640" y="2440" width="40" height="100"/>
<rect id="BOXW541" x="1610" y="2440" width="30" height="100"/>
<rect id="BOXW539" x="1550" y="2440" width="30" height="100"/>
<rect id="BOXW538" x="1520" y="2440" width="30" height="100"/>
<rect id="BOXW529" x="1250" y="2440" width="30" height="100"/>
<rect id="BOXW528" x="1220" y="2440" width="30" height="100"/>
<rect id="BOXW526" x="1160" y="2440" width="30" height="100"/>
<rect id="BOXW562" x="2430" y="2440" width="30" height="100"/>
</svg>
