<?xml version="1.0" encoding="utf-8"?>
<!-- Generator: Adobe Illustrator 27.5.0, SVG Export Plug-In . SVG Version: 6.00 Build 0)  -->
<svg version="1.1" id="Map" xmlns="http://www.w3.org/2000/svg" xmlns:xlink="http://www.w3.org/1999/xlink" x="0px" y="0px"
	 viewBox="0 0 2482 2142.9" style="enable-background:new 0 0 2482 2142.9;" xml:space="preserve">
<style type="text/css">
	.st0{fill:#BBF9B2;}
	.st1{fill:#BBF9B2;stroke:#FCFCFC;stroke-width:5;stroke-miterlimit:10;}
	.st2{fill:none;stroke:#FCFCFC;stroke-width:5;stroke-miterlimit:10;}
</style>
<polygon id="_x31_01" points="459,387 549,387 549,459 513,459 459,405 "/>
<polygon id="_x31_02" points="729,387 729,459 549,459 549,387 "/>
<polygon id="_x31_03" points="900,387 900,459 729,459 729,387 "/>
<polygon id="_x31_04" points="1080,387 1080,459 900,459 900,387 "/>
<polygon id="_x31_05" points="1242,387 1242,459 1080,459 1080,387 "/>
<polygon id="_x31_06" points="1413,387 1413,459 1242,459 1242,387 "/>
<polygon id="_x31_07" points="1584,387 1584,459 1413,459 1413,387 "/>
<polygon id="_x31_08" points="1764,387 1764,459 1584,459 1584,387 "/>
<polygon id="_x31_09" points="1944,387 1944,459 1764,459 1764,387 "/>
<polygon id="_x31_10" points="2034,387 2034,405 1980,459 1944,459 1944,387 "/>
<polygon id="_x32_01" points="450,72 540,72 540,306 450,306 "/>
<polygon id="_x32_02" points="720,72 720,306 540,306 540,72 "/>
<polygon id="_x32_03" points="891,72 891,306 720,306 720,72 "/>
<polygon id="_x32_04" points="1071,72 1071,306 891,306 891,72 "/>
<polygon id="_x32_05" points="1242,72 1242,306 1071,306 1071,72 "/>
<polygon id="_x32_06" points="1413,72 1413,306 1242,306 1242,72 "/>
<polygon id="_x32_07" points="1611,72 1611,306 1413,306 1413,72 "/>
<polygon id="_x32_08" points="1782,72 1782,306 1611,306 1611,72 "/>
<polygon id="_x32_09" points="1962,72 1962,306 1782,306 1782,72 "/>
<polygon id="_x32_10" points="2043,72 2043,306 1962,306 1962,72 "/>
<polygon id="_x33_01" points="531,1422 513,1422 450,1485 450,1809 531,1809 "/>
<polygon id="_x33_02" points="531,1422 711,1422 711,1809 531,1809 "/>
<polygon id="_x33_03" points="891,1422 891,1809 711,1809 711,1422 "/>
<polygon id="_x33_04" points="1035,1422 891,1422 891,1809 1071,1809 1071,1611 954,1611 954,1503 1035,1503 "/>
<polygon id="_x33_05" points="1134,1422 1035,1422 1035,1611 1071,1611 1071,1809 1242,1809 1242,1611 1134,1611 1134,1593 
	1098,1593 1098,1584 1062,1584 1062,1503 1134,1503 "/>
<polygon id="_x33_06" points="1206,1422 1170,1422 1134,1422 1134,1503 1170,1503 1170,1611 1332,1611 1332,1503 1368,1503 
	1368,1422 1287,1422 1287,1539 1206,1539 "/>
<polygon id="_x33_07" points="1422,1809 1242,1809 1242,1611 1368,1611 1368,1422 1458,1422 1458,1503 1386,1503 1386,1611 
	1422,1611 "/>
<polygon id="_x33_08" points="1602,1422 1602,1809 1422,1809 1422,1611 1530,1611 1530,1503 1458,1503 1458,1422 "/>
<polygon id="_x33_09" points="1773,1422 1773,1809 1602,1809 1602,1422 "/>
<polygon id="_x33_10" points="1953,1422 1773,1422 1773,1809 1953,1809 "/>
<polygon id="_x33_11" points="1980,1422 2043,1485 2043,1809 1953,1809 1953,1422 "/>
<polygon id="_x35_01" points="450,459 450,531 90,531 90,459 "/>
<polygon id="_x35_02" points="90,693 450,693 450,531 90,531 "/>
<polygon id="_x35_03" points="450,846 90,846 90,693 450,693 "/>
<polygon id="_x35_04" points="450,1008 90,1008 90,846 450,846 "/>
<polygon id="_x35_05" points="450,1170 90,1170 90,1008 450,1008 "/>
<polygon id="_x35_06" points="450,1170 450,1233 414,1233 414,1323 90,1323 90,1170 "/>
<polygon id="_x35_07" points="90,1413 414,1413 414,1323 90,1323 "/>
<polygon id="_x36_01" points="2043,468 2403,468 2403,558 2043,558 "/>
<polygon id="_x36_02" points="2403,711 2043,711 2043,558 2403,558 "/>
<polygon id="_x36_03" points="2403,873 2043,873 2043,711 2403,711 "/>
<polygon id="_x36_04" points="2403,1026 2043,1026 2043,873 2403,873 "/>
<polygon id="_x36_05" points="2403,1188 2043,1188 2043,1026 2403,1026 "/>
<polygon id="_x36_06" points="2403,1350 2403,1188 2043,1188 2043,1233 2079,1233 2079,1350 "/>
<polygon id="_x36_07" points="2079,1413 2403,1413 2403,1350 2079,1350 "/>
<polygon id="SB_1" points="450,1890 600,1890 600,1940 450,1940 "/>
<polygon id="SB_4" points="710,1890 710,1940 600,1940 600,1890 "/>
<polygon id="SB_6" points="780,1890 780,1940 710,1940 710,1890 "/>
<polygon id="SB_7" points="850,1890 780,1890 780,1940 850,1940 "/>
<polygon id="SB_8" points="910,1890 910,1940 850,1940 850,1890 "/>
<polygon id="SB_9" points="1030,1890 1030,1940 910,1940 910,1890 "/>
<polygon id="SB_10" points="1420,1890 1420,1940 1480,1940 1480,1890 "/>
<polygon id="SB_11" points="1540,1890 1540,1940 1480,1940 1480,1890 "/>
<polygon id="SB_12" points="1600,1890 1600,1940 1540,1940 1540,1890 "/>
<polygon id="SB_13" points="1660,1890 1660,1940 1600,1940 1600,1890 "/>
<polygon id="SB_14" points="1710,1890 1710,1940 1660,1940 1660,1890 "/>
<polygon id="SB_15" points="1770,1890 1770,1940 1710,1940 1710,1890 "/>
<polygon id="SB_16" points="1830,1890 1830,1940 1770,1940 1770,1890 "/>
<polygon id="SB_17" points="1890,1890 1890,1940 1830,1940 1830,1890 "/>
<polygon id="SB_18" points="1950,1890 1950,1940 1890,1940 1890,1890 "/>
<polygon id="SB_19" points="2010,1890 2010,1940 1950,1940 1950,1890 "/>
<polygon id="OCR_1" points="1494,1611 1494,1584 1530,1584 1530,1611 "/>
<polygon id="OCR_2" points="1494,1557 1530,1557 1530,1584 1494,1584 "/>
<polygon id="OCR_3" points="1494,1530 1530,1530 1530,1557 1494,1557 "/>
<polygon id="OCR_4" points="1494,1503 1530,1503 1530,1530 1494,1530 "/>
<polygon id="OCR_5" points="1458,1611 1494,1611 1494,1584 1458,1584 "/>
<polygon id="OCR_6" points="1458,1557 1458,1584 1494,1584 1494,1557 "/>
<polygon id="OCR_7" points="1458,1530 1458,1557 1494,1557 1494,1530 "/>
<polygon id="OCR_8" points="1458,1503 1458,1530 1494,1530 1494,1503 "/>
<polygon id="OCR_9" points="1422,1584 1422,1611 1458,1611 1458,1584 "/>
<polygon id="OCR_10" points="1422,1557 1422,1584 1458,1584 1458,1557 "/>
<polygon id="OCR_11" points="1422,1530 1422,1557 1458,1557 1458,1530 "/>
<polygon id="OCR_12" points="1422,1503 1422,1530 1458,1530 1458,1503 "/>
<polygon id="OCR_13" points="1386,1584 1386,1611 1422,1611 1422,1584 "/>
<polygon id="OCR_14" points="1386,1557 1386,1584 1422,1584 1422,1557 "/>
<polygon id="OCR_15" points="1386,1530 1386,1557 1422,1557 1422,1530 "/>
<polygon id="OCR_16" points="1386,1503 1386,1530 1422,1530 1422,1503 "/>
<polygon id="OCR_17" points="1332,1584 1368,1584 1368,1611 1332,1611 "/>
<polygon id="OCR_18" points="1332,1557 1368,1557 1368,1584 1332,1584 "/>
<polygon id="OCR_19" points="1332,1530 1368,1530 1368,1557 1332,1557 "/>
<polygon id="OCR_20" points="1332,1503 1368,1503 1368,1530 1332,1530 "/>
<polygon id="OCR_21" points="1134,1584 1134,1611 1170,1611 1170,1584 "/>
<polygon id="OCR_22" points="1134,1557 1134,1584 1170,1584 1170,1557 "/>
<polygon id="OCR_23" points="1134,1530 1134,1557 1170,1557 1170,1530 "/>
<polygon id="OCR_24" points="1134,1503 1134,1530 1170,1530 1170,1503 "/>
<polygon id="OCR_25" points="1098,1557 1098,1593 1134,1593 1134,1557 "/>
<polygon id="OCR_26" points="1098,1530 1098,1557 1134,1557 1134,1530 "/>
<polygon id="OCR_27" points="1098,1503 1098,1530 1134,1530 1134,1503 "/>
<polygon id="OCR_28" points="1062,1557 1062,1584 1098,1584 1098,1557 "/>
<polygon id="OCR_29" points="1062,1530 1062,1557 1098,1557 1098,1530 "/>
<polygon id="OCR_30" points="1062,1503 1062,1530 1098,1530 1098,1503 "/>
<polygon id="OCR_31" points="999,1611 1035,1611 1035,1584 999,1584 "/>
<polygon id="OCR_32" points="999,1557 999,1584 1035,1584 1035,1557 "/>
<polygon id="OCR_33" points="999,1530 999,1557 1035,1557 1035,1530 "/>
<polygon id="OCR_34" points="999,1503 999,1530 1035,1530 1035,1503 "/>
<polygon id="OCR_35" points="954,1584 954,1611 999,1611 999,1584 "/>
<polygon id="OCR_36" points="954,1557 954,1584 999,1584 999,1557 "/>
<polygon id="OCR_37" points="954,1530 954,1557 999,1557 999,1530 "/>
<polygon id="OCR_38" points="954,1503 954,1530 999,1530 999,1503 "/>
<polygon id="_x34_01" points="693,2007 693,2079 450,2079 450,2007 "/>
<polygon id="_x34_02" points="891,2079 693,2079 693,2007 891,2007 "/>
<polygon id="_x34_03" points="1053,2079 891,2079 891,2007 1053,2007 "/>
<polygon id="_x34_05" points="1269,2079 1152,2079 1152,2016 1269,2016 "/>
<polygon id="_x34_06" points="1341,2079 1269,2079 1269,2016 1341,2016 "/>
<polygon id="_x34_07" points="1404,2016 1404,2079 1341,2079 1341,2016 "/>
<polygon id="_x34_08" points="1602,2079 1602,2007 1404,2007 1404,2079 "/>
<polygon id="_x34_09" points="1800,2079 1602,2079 1602,2007 1800,2007 "/>
<polygon id="_x34_10" points="2043,2007 2043,2079 1800,2079 1800,2007 "/>
<g id="Field">
	<rect x="601.3" y="508.3" class="st0" width="1299.4" height="837.4"/>
	<g>
		<g>
			<rect x="632.2" y="527.1" class="st1" width="1237.5" height="797.5"/>
			<rect x="632.2" y="687.5" class="st2" width="192.5" height="474.4"/>
			<rect x="632.2" y="817" class="st2" width="68.8" height="220"/>
			<circle class="st2" cx="1251" cy="927" r="110"/>
			<g>
				<rect x="1677.3" y="689.8" class="st2" width="192.5" height="474.4"/>
				<rect x="1800.9" y="820.5" class="st2" width="68.8" height="220"/>
			</g>
			<line class="st2" x1="1251" y1="1325.8" x2="1251" y2="528.2"/>
		</g>
	</g>
</g>
<rect id="_x34_04" x="1053" y="2016" width="99" height="63"/>
</svg>
