<?xml version="1.0" encoding="utf-8"?>
<!-- Generator: Adobe Illustrator 27.5.0, SVG Export Plug-In . SVG Version: 6.00 Build 0)  -->
<svg version="1.1" id="Map" xmlns="http://www.w3.org/2000/svg" xmlns:xlink="http://www.w3.org/1999/xlink" x="0px" y="0px"
	 viewBox="0 0 2650 2727" style="enable-background:new 0 0 2650 2727;" xml:space="preserve">
<style type="text/css">
	.st0{fill:#BBF9B2;}
	.st1{fill:#BBF9B2;stroke:#FCFCFC;stroke-width:5;stroke-miterlimit:10;}
	.st2{fill:none;stroke:#FCFCFC;stroke-width:5;stroke-miterlimit:10;}
</style>
<polygon id="_x31_" points="390,1930 580,1950 550,2270 390,2250 "/>
<polygon id="_x32_" points="580,1950 550,2270 750,2280 770,1970 "/>
<polygon id="_x33_" points="770,1970 950,1980 940,2290 750,2280 "/>
<polygon id="_x34_" points="1140,1990 1130,2290 940,2290 950,1980 "/>
<polygon id="_x35_" points="1140,1990 1320,1990 1320,2280 1200,2280 1130,2280 1130,2240 "/>
<polygon id="_x37_" points="1700,1980 1710,2290 1520,2290 1510,1990 "/>
<polygon id="_x38_" points="1880,1970 1900,2280 1710,2290 1700,1980 "/>
<polygon id="_x39_" points="1880,1970 1900,2280 2090,2260 2070,1960 "/>
<polygon id="_x31_0" points="2070,1960 2090,2260 2300,2230 2210,1940 "/>
<polygon id="_x31_2" points="390,2650 390,2400 540,2400 540,2650 "/>
<polygon id="_x31_3" points="730,2400 730,2650 540,2650 540,2400 "/>
<polygon id="_x31_4" points="920,2400 920,2650 730,2650 730,2400 "/>
<polygon id="_x31_5" points="1120,2400 1120,2620 1010,2620 1010,2650 920,2650 920,2400 "/>
<polygon id="_x31_6" points="1320,2400 1320,2650 1140,2650 1140,2620 1120,2620 1120,2400 "/>
<polygon id="_x31_7" points="1540,2400 1540,2620 1420,2620 1420,2650 1320,2650 1320,2400 "/>
<polygon id="_x31_8" points="1730,2650 1650,2650 1650,2620 1540,2620 1540,2400 1730,2400 "/>
<polygon id="_x31_9" points="1920,2400 1920,2650 1730,2650 1730,2400 "/>
<polygon id="_x32_0" points="2100,2400 2100,2650 1920,2650 1920,2400 "/>
<polygon id="_x32_1" points="2100,2400 2260,2400 2260,2650 2100,2650 "/>
<polygon id="_x32_3" points="2300,390 2210,680 2060,670 2100,370 "/>
<polygon id="_x32_4" points="1900,360 2100,370 2060,670 1880,650 "/>
<polygon id="_x32_5" points="1700,640 1880,650 1900,360 1710,350 "/>
<polygon id="_x32_6" points="1520,340 1710,350 1700,640 1510,630 "/>
<polygon id="_x32_7" points="1330,340 1520,340 1510,630 1330,630 "/>
<polygon id="_x32_8" points="1140,340 1330,340 1330,630 1140,630 "/>
<polygon id="_x32_9" points="940,350 1140,340 1140,630 960,640 "/>
<polygon id="_x33_0" points="750,360 940,350 960,640 770,650 "/>
<polygon id="_x33_1" points="560,370 590,660 770,650 750,360 "/>
<polygon id="_x33_2" points="400,680 590,660 560,370 390,390 "/>
<polygon id="_x33_4" points="2200,100 2200,300 1940,300 1940,100 "/>
<polygon id="_x33_5" points="1940,100 1940,300 1730,300 1730,100 "/>
<polygon id="_x33_6" points="1560,300 1730,300 1730,100 1560,100 "/>
<polygon id="_x33_7" points="1340,100 1560,100 1560,300 1340,300 "/>
<polygon id="_x33_8" points="1150,300 1340,300 1340,100 1150,100 "/>
<polygon id="_x33_9" points="920,100 1150,100 1150,300 920,300 "/>
<polygon id="_x34_0" points="770,100 920,100 920,300 770,300 "/>
<polygon id="_x34_3" points="370,660 360,840 300,840 310,650 "/>
<polygon id="_x34_4" points="360,840 300,840 290,1020 350,1020 "/>
<polygon id="_x34_5" points="350,1210 350,1020 290,1020 290,1210 "/>
<polygon id="_x34_6" points="350,1400 350,1210 290,1210 290,1400 "/>
<polygon id="_x34_7" points="350,1590 350,1400 290,1400 290,1590 "/>
<polygon id="_x34_8" points="350,1590 360,1780 300,1780 290,1590 "/>
<polygon id="_x34_9" points="360,1780 380,1960 310,1970 300,1780 "/>
<polygon id="SB_1" points="1650,2620 1650,2670 1580,2670 1580,2620 "/>
<polygon id="SB_2" points="1580,2620 1580,2670 1420,2670 1420,2620 "/>
<polygon id="SB_5" points="1010,2670 1080,2670 1080,2620 1010,2620 "/>
<polygon id="SB_4" points="1080,2620 1080,2670 1140,2670 1140,2620 "/>
<polygon id="_x36_" points="1330,2280 1330,1990 1510,1990 1520,2240 1519.7,2280 1450,2280 "/>
<polygon id="STAND_00000057870800941982031900000004961714108160806591_" points="2440,690 2450,1920 2250,1920 2250,690 "/>
<polygon id="SB_15" points="190,1210 140,1210 140,1300 190,1300 "/>
<polygon id="SB_14" points="190,1400 190,1300 140,1300 140,1400 "/>
<polygon id="SB_8" points="190,1930 140,1930 140,1860 190,1860 "/>
<polygon id="SB_9" points="190,1780 190,1860 140,1860 140,1780 "/>
<polygon id="SB_10" points="190,1690 190,1780 140,1780 140,1690 "/>
<polygon id="SB_11" points="190,1590 190,1690 140,1690 140,1590 "/>
<polygon id="SB_12" points="190,1490 190,1590 140,1590 140,1490 "/>
<polygon id="SB_13" points="190,1400 190,1490 140,1490 140,1400 "/>
<g id="Field">
	<rect x="690.3" y="886.3" class="st0" width="1299.4" height="837.4"/>
	<g>
		<g>
			<rect x="721.2" y="905.1" class="st1" width="1237.5" height="797.5"/>
			<rect x="721.2" y="1065.5" class="st2" width="192.5" height="474.4"/>
			<rect x="721.2" y="1195" class="st2" width="68.8" height="220"/>
			<circle class="st2" cx="1340" cy="1305" r="110"/>
			<g>
				<rect x="1766.3" y="1067.8" class="st2" width="192.5" height="474.4"/>
				<rect x="1889.9" y="1198.5" class="st2" width="68.8" height="220"/>
			</g>
			<line class="st2" x1="1340" y1="1703.8" x2="1340" y2="906.2"/>
		</g>
	</g>
</g>
</svg>
