<?xml version="1.0" encoding="utf-8"?>
<!-- Generator: Adobe Illustrator 27.5.0, SVG Export Plug-In . SVG Version: 6.00 Build 0)  -->
<svg version="1.1" id="Map" xmlns="http://www.w3.org/2000/svg" xmlns:xlink="http://www.w3.org/1999/xlink" x="0px" y="0px"
	 viewBox="0 0 3526 2919" style="enable-background:new 0 0 3526 2919;" xml:space="preserve">
<style type="text/css">
	.st0{fill:#BBF9B2;}
	.st1{fill:#BBF9B2;stroke:#FCFCFC;stroke-width:5;stroke-miterlimit:10;}
	.st2{fill:none;stroke:#FCFCFC;stroke-width:5;stroke-miterlimit:10;}
</style>
<polygon id="_x31_" points="470,520 550,600 570,640 530,680 610,770 760,770 760,570 630,570 630,510 "/>
<polygon id="_x32_" points="760,570 980,570 980,770 760,770 "/>
<polygon id="_x33_" points="980,570 980,770 1210,770 1210,570 "/>
<polygon id="_x34_" points="1420,770 1420,570 1210,570 1210,770 "/>
<polygon id="_x35_" points="1540,650 1650,650 1650,770 1430,770 1430,570 1620,570 1620,590 1540,590 "/>
<polygon id="_x36_" points="1860,770 1860,650 1650,650 1650,770 1750,770 1780,770 "/>
<polygon id="_x37_" points="2080,770 2080,570 1900,570 1900,590 1970,590 1970,650 1860,650 1860,770 "/>
<polygon id="_x38_" points="2300,570 2300,770 2080,770 2080,660 2080,570 "/>
<polygon id="_x39_" points="2520,570 2520,770 2300,770 2300,570 "/>
<polygon id="_x31_0" points="2740,570 2740,770 2520,770 2520,570 "/>
<polygon id="_x31_1" points="2740,570 2890,570 2890,530 3020,530 2980,570 2950,600 2900,650 2940,650 2820,770 2740,770 "/>
<polygon id="_x31_2" points="3130,680 3250,570 3120,440 3000,550 3020,570 2990,600 3070,670 3100,640 "/>
<polygon id="_x31_3" points="3130,680 3300,680 3300,610 3250,570 "/>
<polygon id="_x31_4" points="3030,910 3030,890 3150,890 3150,910 3370,910 3300,680 3130,680 3090,720 3060,690 2910,840 2910,910 
	"/>
<polygon id="_x31_5" points="3400,1140 3390,920 2910,920 2910,1140 "/>
<polygon id="_x31_6" points="2910,1150 2910,1350 3410,1350 3330,1240 3400,1150 "/>
<polygon id="_x31_7" points="2910,1570 3400,1570 3410,1360 2910,1360 "/>
<polygon id="_x31_8" points="3400,1790 3340,1690 3400,1570 2910,1570 2910,1790 3320,1790 "/>
<polygon id="_x31_9" points="2910,2020 3380,2020 3400,1790 2910,1790 "/>
<polygon id="_x32_0" points="3380,2020 3320,2120 3320,2250 3060,2250 2910,2090 2910,2020 "/>
<polygon id="_x32_1" points="2980,2340 3070,2570 3320,2330 3320,2250 3210,2250 3060,2250 "/>
<polygon id="_x32_2" points="2870,2380 2870,2440 3020,2440 2980,2340 2830,2160 2740,2160 2740,2380 "/>
<polygon id="_x32_3" points="2530,2160 2740,2160 2740,2380 2530,2380 "/>
<polygon id="_x32_4" points="2300,2160 2530,2160 2530,2380 2300,2380 "/>
<polygon id="_x32_5" points="2090,2160 2100,2380 2300,2380 2300,2180 2300,2160 "/>
<polygon id="_x32_6" points="1856.2,2348.4 1753.1,2348.4 1753.1,2444.6 1973.1,2444.6 1973.1,2382.8 2090,2382.8 2090,2162.8 
	1856.2,2162.8 "/>
<polygon id="_x32_7" points="1643.1,2162.8 1714,2162.8 1714,2283.7 1782.5,2283.7 1780.6,2162.8 1856.2,2162.8 1856.2,2348.4 
	1643.1,2348.4 "/>
<polygon id="_x32_8" points="1423.1,2162.8 1423.1,2382.8 1553.8,2382.8 1553.8,2444.6 1753.1,2444.6 1753.1,2348.4 1643.1,2348.4 
	1643.1,2162.8 "/>
<polygon id="_x32_9" points="1210,2380 1420,2380 1420,2160 1210,2160 "/>
<polygon id="_x33_0" points="980,2160 990,2380 1200,2380 1210,2380 1210,2160 "/>
<polygon id="_x33_1" points="770,2160 770,2380 980,2380 980,2160 "/>
<polygon id="_x33_2" points="520,2250 610,2160 770,2160 770,2380 520,2380 560,2290 560,2290 "/>
<polygon id="_x33_3" points="270,2370 400,2240 470,2210 560,2290 520,2380 460,2430 390,2490 "/>
<polygon id="_x33_4" points="210,2240 210,2320 260,2370 400,2240 "/>
<polygon id="_x33_5" points="140,2020 600,2020 610,2160 520,2250 470,2210 400,2240 210,2240 220,2120 "/>
<polygon id="_x33_6" points="610,1790 600,2010 140,2010 120,1790 "/>
<polygon id="_x33_7" points="610,1580 610,1790 120,1780 180,1690 110,1580 "/>
<polygon id="_x33_8" points="610,1360 610,1580 110,1580 110,1360 "/>
<polygon id="_x33_9" points="610,1140 610,1350 110,1350 180,1240 110,1140 "/>
<polygon id="_x34_0" points="610,920 610,1140 110,1140 120,920 "/>
<polygon id="_x34_1" points="610,770 610,920 120,920 220,810 220,700 420,700 480,730 530,680 580,740 "/>
<polygon id="_x34_2" points="220,600 220,700 420,700 480,730 570,640 550,600 470,520 470,520 330,610 "/>
<polygon id="_x37_0" points="660,290 660,460 770,460 770,200 "/>
<polygon id="_x37_1" points="990,460 770,460 770,200 870,160 990,160 "/>
<polygon id="_x37_2" points="1210,460 1210,120 1090,190 990,160 990,460 "/>
<polygon id="_x37_3" points="1430,90 1430,460 1210,460 1210,120 1270,90 "/>
<polygon id="_x37_4" points="1650,460 1650,80 1540,140 1430,90 1430,460 "/>
<polygon id="_x37_5" points="1870,80 1870,460 1650,460 1650,80 "/>
<polygon id="_x37_6" points="2090,90 2090,460 1870,460 1870,80 1980,140 "/>
<polygon id="_x37_7" points="2310,130 2310,460 2090,460 2090,90 2240,90 "/>
<polygon id="_x37_8" points="2520,150 2520,460 2310,460 2310,130 2410,190 "/>
<polygon id="_x37_9" points="2750,460 2750,210 2650,150 2520,150 2520,240 2520,460 "/>
<polygon id="_x38_0" points="2860,460 2860,290 2750,210 2750,460 "/>
<polygon id="_x38_1" points="2740,2480 2860,2480 2860,2640 2740,2740 "/>
<polygon id="_x38_2" points="2740,2480 2530,2480 2530,2780 2660,2780 2740,2740 "/>
<polygon id="_x38_3" points="2310,2480 2530,2480 2530,2780 2490,2780 2420,2740 2310,2820 "/>
<polygon id="_x38_4" points="2090,2480 2310,2480 2310,2820 2250,2850 2090,2850 "/>
<polygon id="_x38_5" points="1870,2480 2090,2480 2090,2850 1980,2800 1870,2840 "/>
<polygon id="_x38_6" points="1650,2480 1870,2480 1870,2840 1650,2840 "/>
<polygon id="_x38_7" points="1430,2480 1650,2480 1650,2840 1540,2800 1430,2850 "/>
<polygon id="_x38_8" points="1210,2480 1210,2850 1430,2850 1430,2480 "/>
<polygon id="_x38_9" points="990,2480 990,2770 990,2780 1020,2780 1100,2750 1210,2850 1210,2480 "/>
<polygon id="_x39_0" points="770,2480 990,2480 990,2780 860,2780 770,2730 770,2670 "/>
<polygon id="_x39_1" points="660,2480 650,2640 770,2730 770,2480 "/>
<rect id="SB_50" x="648" y="489" width="117" height="72"/>
<rect id="SB_51" x="765" y="489" width="225" height="72"/>
<rect id="SB_52" x="990" y="489" width="216" height="72"/>
<rect id="SB_53" x="1206" y="489" width="225" height="72"/>
<rect id="SB_54" x="1431" y="489" width="216" height="72"/>
<rect id="SB_55" x="1647" y="489" width="216" height="72"/>
<rect id="SB_56" x="1863" y="489" width="225" height="72"/>
<rect id="SB_57" x="2088" y="489" width="216" height="72"/>
<rect id="SB_58" x="2304" y="489" width="216" height="72"/>
<rect id="SB_59" x="2520" y="489" width="234" height="72"/>
<rect id="SB_60" x="2754" y="489" width="108" height="72"/>
<rect id="SB_1" x="2637" y="2388" width="72" height="54"/>
<rect id="SB_2" x="2565" y="2388" width="72" height="54"/>
<rect id="SB_3" x="2493" y="2388" width="72" height="54"/>
<rect id="SB_4" x="2412" y="2388" width="81" height="54"/>
<rect id="SB_5" x="2340" y="2388" width="72" height="54"/>
<rect id="SB_6" x="2268" y="2388" width="72" height="54"/>
<rect id="VIP" x="1971" y="2388" width="297" height="54"/>
<rect id="SB_7" x="1467" y="2388" width="72" height="54"/>
<rect id="SB_8" x="1395" y="2388" width="72" height="54"/>
<rect id="SB_9" x="1314" y="2388" width="81" height="54"/>
<rect id="SB_10" x="1242" y="2388" width="72" height="54"/>
<rect id="SB_11" x="1170" y="2388" width="72" height="54"/>
<rect id="SB_12" x="1098" y="2388" width="72" height="54"/>
<rect id="SB_13" x="1026" y="2388" width="72" height="54"/>
<rect id="SB_14" x="954" y="2388" width="72" height="54"/>
<rect id="SB_15" x="882" y="2388" width="72" height="54"/>
<rect id="SB_16" x="801" y="2388" width="81" height="54"/>
<rect id="SB_17" x="729" y="2388" width="72" height="54"/>
<rect id="SB_18" x="657" y="2388" width="72" height="54"/>
<g id="Field">
	<rect x="912.3" y="922.2" class="st0" width="1667.5" height="1074.6"/>
	<g>
		<g>
			<rect x="952" y="946.3" class="st1" width="1588" height="1023.4"/>
			<rect x="952" y="1152.2" class="st2" width="247" height="608.7"/>
			<rect x="952" y="1318.3" class="st2" width="88.3" height="282.4"/>
			<circle class="st2" cx="1745.9" cy="1459.5" r="141.2"/>
			<g>
				<rect x="2293" y="1155.2" class="st2" width="247" height="608.7"/>
				<rect x="2451.6" y="1322.7" class="st2" width="88.3" height="282.4"/>
			</g>
			<line class="st2" x1="1745.9" y1="1971.2" x2="1745.9" y2="947.8"/>
		</g>
	</g>
</g>
</svg>
