<?xml version="1.0" encoding="utf-8"?>
<!-- Generator: Adobe Illustrator 27.5.0, SVG Export Plug-In . SVG Version: 6.00 Build 0)  -->
<svg version="1.1" id="Map" xmlns="http://www.w3.org/2000/svg" xmlns:xlink="http://www.w3.org/1999/xlink" x="0px" y="0px"
	 viewBox="0 0 3022 2703" style="enable-background:new 0 0 3022 2703;" xml:space="preserve">
<style type="text/css">
	.st0{fill:#BBF9B2;}
	.st1{fill:#BBF9B2;stroke:#FCFCFC;stroke-width:5;stroke-miterlimit:10;}
	.st2{fill:none;stroke:#FCFCFC;stroke-width:5;stroke-miterlimit:10;}
</style>
<polygon id="W101" points="550,2110 630,2120 610,2280 470,2260 "/>
<polygon id="W102" points="790,2140 770,2300 610,2280 630,2120 "/>
<polygon id="W103" points="940,2150 930,2310 770,2300 790,2140 "/>
<polygon id="W104" points="1060,2160 1050,2320 930,2310 940,2150 "/>
<polygon id="W105" points="1130,2160 1130,2320 1050,2320 1060,2160 "/>
<polygon id="W106" points="1180,2160 1180,2220 1130,2220 1130,2160 "/>
<polygon id="W107" points="1230,2180 1230,2220 1350,2220 1350,2180 "/>
<polygon id="W108" points="1350,2150 1470,2150 1470,2220 1350,2220 "/>
<polygon id="W109" points="1560,2150 1560,2220 1470,2220 1470,2150 "/>
<polygon id="W110" points="1610,2150 1700,2150 1700,2220 1610,2220 "/>
<polygon id="W111" points="1820,2150 1820,2220 1700,2220 1700,2150 "/>
<polygon id="W112" points="1940,2170 1940,2220 1820,2220 1820,2170 "/>
<polygon id="W113" points="2090,2140 2140,2140 2160,2300 2100,2300 "/>
<polygon id="W114" points="2290,2120 2310,2280 2160,2300 2140,2140 "/>
<polygon id="W115" points="2370,2110 2440,2260 2310,2280 2290,2120 "/>
<polygon id="S116" points="2440,2050 2600,2120 2440,2260 2370,2110 "/>
<polygon id="S117" points="2440,1900 2600,1900 2600,2120 2440,2050 "/>
<polygon id="S118" points="2440,1710 2600,1710 2600,1900 2440,1900 "/>
<polygon id="S119" points="2440,1520 2600,1520 2600,1710 2440,1710 "/>
<polygon id="S120" points="2440,1330 2600,1330 2600,1520 2440,1520 "/>
<polygon id="S121" points="2440,1130 2600,1130 2600,1330 2440,1330 "/>
<polygon id="S123" points="2380,920 2460,760 2600,910 2440,980 "/>
<polygon id="E125" points="1990,880 2170,900 2200,800 2000,780 "/>
<polygon id="E126" points="1780,770 2000,780 1990,880 1780,870 "/>
<polygon id="E127" points="1570,770 1780,770 1780,870 1570,860 "/>
<polygon id="E128" points="1360,700 1570,700 1570,860 1360,860 "/>
<polygon id="E129" points="1150,770 1150,860 1360,860 1360,770 "/>
<polygon id="E130" points="940,780 1150,770 1150,860 950,870 "/>
<polygon id="E131" points="730,800 940,780 950,870 740,890 "/>
<polygon id="E132" points="560,910 490,750 720,720 740,890 "/>
<polygon id="N133" points="410,810 490,970 330,900 330,900 "/>
<polygon id="N135" points="490,1320 330,1320 330,1120 490,1120 "/>
<polygon id="N136" points="490,1510 330,1510 330,1320 490,1320 "/>
<polygon id="N137" points="490,1700 330,1700 330,1510 490,1510 "/>
<polygon id="N138" points="490,1890 330,1890 330,1700 490,1700 "/>
<polygon id="N139" points="490,1890 490,2050 330,2110 330,1890 "/>
<polygon id="N140" points="490,2050 550,2110 470,2260 330,2110 "/>
<polygon id="S217" points="2740,1980 2740,2070 2930,2070 2930,1980 "/>
<polygon id="S218" points="2740,1790 2930,1790 2930,1980 2740,1980 "/>
<polygon id="S219" points="2740,1600 2930,1600 2930,1790 2740,1790 "/>
<polygon id="S220" points="2740,1410 2930,1410 2930,1600 2740,1600 "/>
<polygon id="S221" points="2740,1220 2930,1220 2930,1410 2740,1410 "/>
<polygon id="S222" points="2930,1040 2930,1220 2740,1220 2740,1040 "/>
<polygon id="S223" points="2740,950 2930,950 2930,1040 2740,1040 "/>
<polygon id="E224" points="2340,130 2420,140 2380,520 2300,510 "/>
<polygon id="E225" points="2090,490 2300,510 2340,130 2120,110 "/>
<polygon id="E226" points="1880,480 1880,480 2090,490 2120,110 1900,100 "/>
<polygon id="E227" points="1680,90 1900,100 1880,480 1670,470 "/>
<polygon id="E228" points="1680,90 1670,470 1460,470 1460,90 "/>
<polygon id="E229" points="1240,470 1460,470 1460,90 1230,90 "/>
<polygon id="E230" points="1230,90 1240,470 1030,480 1010,100 "/>
<polygon id="E231" points="790,120 1010,100 1030,480 820,500 "/>
<polygon id="E232" points="570,140 790,120 820,500 610,520 "/>
<polygon id="E233" points="480,150 570,140 610,520 530,530 "/>
<polygon id="STAND" points="90,1280 270,1280 270,1740 90,1740 "/>
<polygon id="W207" points="1230,2350 1230,2580 1380,2580 1380,2350 "/>
<polygon id="W208" points="1500,2580 1380,2580 1380,2450 1500,2450 "/>
<polygon id="W209" points="1660,2450 1660,2580 1500,2580 1500,2450 "/>
<polygon id="W210" points="1780,2450 1780,2580 1660,2580 1660,2450 "/>
<polygon id="W211" points="1780,2350 1940,2350 1940,2580 1780,2580 "/>
<polygon id="BOX_1" points="1420,2350 1420,2390 1380,2390 1380,2350 "/>
<polygon id="BOX_2" points="1460,2350 1460,2390 1420,2390 1420,2350 "/>
<polygon id="BOX_3" points="1420,2420 1380,2420 1380,2390 1420,2390 "/>
<polygon id="BOX_4" points="1460,2420 1420,2420 1420,2390 1460,2390 "/>
<polygon id="BOX_5" points="1420,2450 1380,2450 1380,2420 1420,2420 "/>
<polygon id="BOX_6" points="1460,2450 1420,2450 1420,2420 1460,2420 "/>
<polygon id="BOX_7" points="1540,2350 1540,2390 1460,2390 1460,2350 "/>
<polygon id="BOX_8" points="1500,2420 1460,2420 1460,2390 1500,2390 "/>
<polygon id="BOX_9" points="1540,2420 1500,2420 1500,2390 1540,2390 "/>
<polygon id="BOX_10" points="1460,2450 1460,2420 1500,2420 1500,2450 "/>
<polygon id="BOX_11" points="1540,2420 1540,2450 1500,2450 1500,2420 "/>
<polygon id="BOX_12" points="1570,2350 1570,2390 1540,2390 1540,2350 "/>
<polygon id="BOX_13" points="1600,2350 1600,2390 1570,2390 1570,2350 "/>
<polygon id="BOX_14" points="1630,2350 1630,2390 1600,2390 1600,2350 "/>
<polygon id="BOX_15" points="1660,2350 1660,2390 1630,2390 1630,2350 "/>
<polygon id="BOX_16" points="1600,2420 1540,2420 1540,2390 1600,2390 "/>
<polygon id="BOX_17" points="1660,2420 1600,2420 1600,2390 1660,2390 "/>
<polygon id="BOX_18" points="1600,2450 1540,2450 1540,2420 1600,2420 "/>
<polygon id="BOX_19" points="1660,2420 1660,2450 1600,2450 1600,2420 "/>
<polygon id="BOX_20" points="1720,2350 1720,2370 1660,2370 1660,2350 "/>
<polygon id="BOX_21" points="1680,2390 1660,2390 1660,2370 1680,2370 "/>
<polygon id="BOX_22" points="1700,2390 1680,2390 1680,2370 1700,2370 "/>
<polygon id="BOX_23" points="1720,2390 1700,2390 1700,2370 1720,2370 "/>
<polygon id="BOX_24" points="1690,2420 1660,2420 1660,2390 1690,2390 "/>
<polygon id="BOX_25" points="1720,2420 1690,2420 1690,2390 1720,2390 "/>
<polygon id="BOX_26" points="1690,2450 1660,2450 1660,2420 1690,2420 "/>
<polygon id="BOX_27" points="1720,2450 1690,2450 1690,2420 1720,2420 "/>
<polygon id="BOX_28" points="1720,2350 1780,2350 1780,2370 1720,2370 "/>
<polygon id="BOX_29" points="1750,2390 1720,2390 1720,2370 1750,2370 "/>
<polygon id="BOX_30" points="1750,2390 1780,2390 1780,2370 1750,2370 "/>
<polygon id="BOX_31" points="1750,2420 1720,2420 1720,2390 1750,2390 "/>
<polygon id="BOX_32" points="1750,2420 1780,2420 1780,2390 1750,2390 "/>
<polygon id="BOX_33" points="1750,2420 1750,2450 1720,2450 1720,2420 "/>
<polygon id="BOX_34" points="1780,2450 1750,2450 1750,2420 1780,2420 "/>
<polygon id="VIP_2" points="1230,2250 1230,2290 1300,2290 1300,2250 "/>
<polygon id="VIP_3" points="1350,2250 1350,2290 1300,2290 1300,2250 "/>
<polygon id="VIP_4" points="1410,2250 1410,2290 1350,2290 1350,2250 "/>
<polygon id="SB_5" points="1460,2250 1460,2290 1410,2290 1410,2250 "/>
<polygon id="SB_6" points="1510,2250 1510,2290 1460,2290 1460,2250 "/>
<polygon id="SB_7" points="1560,2250 1560,2290 1510,2290 1510,2250 "/>
<polygon id="SB_8" points="1610,2250 1610,2290 1660,2290 1660,2250 "/>
<polygon id="SB_9" points="1700,2250 1700,2290 1660,2290 1660,2250 "/>
<polygon id="SB_10" points="1760,2250 1700,2250 1700,2290 1760,2290 "/>
<polygon id="SB_11" points="1820,2250 1820,2290 1760,2290 1760,2250 "/>
<polygon id="SB_12" points="1870,2250 1870,2290 1820,2290 1820,2250 "/>
<polygon id="SB_13" points="1920,2250 1920,2290 1870,2290 1870,2250 "/>
<polygon id="SB_14" points="1970,2250 1970,2290 1920,2290 1920,2250 "/>
<polygon id="E124" points="2170,900 2230,720 2460,760 2380,920 "/>
<polygon id="S122" points="2600,910 2600,1130 2440,1130 2440,980 "/>
<polygon id="BOX_36" points="2200,760 2200,730 2150,730 2150,760 "/>
<polygon id="BOX_35" points="2200,700 2200,730 2150,730 2150,700 "/>
<polygon id="BOX_37" points="2100,700 2150,700 2150,730 2100,730 "/>
<polygon id="BOX_38" points="2100,760 2150,760 2150,730 2100,730 "/>
<polygon id="BOX_39" points="2050,700 2100,700 2100,730 2050,730 "/>
<polygon id="BOX_40" points="2050,760 2050,730 2100,730 2100,760 "/>
<polygon id="BOX_41" points="2000,700 2050,700 2050,730 2000,730 "/>
<polygon id="BOX_42" points="2000,760 2000,730 2050,730 2050,760 "/>
<polygon id="BOX_43" points="1990,730 1990,700 1940,700 1940,730 "/>
<polygon id="BOX_44" points="1990,760 1940,760 1940,730 1990,730 "/>
<polygon id="BOX_45" points="1890,700 1890,730 1940,730 1940,700 "/>
<polygon id="BOX_46" points="1890,760 1890,730 1940,730 1940,760 "/>
<polygon id="BOX_47" points="1840,700 1840,730 1890,730 1890,700 "/>
<polygon id="BOX_48" points="1840,760 1840,730 1890,730 1890,760 "/>
<polygon id="BOX_49" points="1790,700 1840,700 1840,730 1790,730 "/>
<polygon id="BOX_50" points="1790,760 1790,730 1840,730 1840,760 "/>
<polygon id="BOX_51" points="1770,700 1720,700 1720,730 1770,730 "/>
<polygon id="BOX_52" points="1770,760 1720,760 1720,730 1770,730 "/>
<polygon id="BOX_53" points="1670,700 1670,730 1720,730 1720,700 "/>
<polygon id="BOX_54" points="1670,760 1670,730 1720,730 1720,760 "/>
<polygon id="BOX_55" points="1620,700 1670,700 1670,730 1620,730 "/>
<polygon id="BOX_56" points="1620,760 1620,730 1670,730 1670,760 "/>
<polygon id="BOX_57" points="1570,700 1620,700 1620,730 1570,730 "/>
<polygon id="BOX_58" points="1620,760 1570,760 1570,730 1620,730 "/>
<polygon id="BOX_59" points="1310,700 1360,700 1360,730 1310,730 "/>
<polygon id="BOX_60" points="1310,730 1360,730 1360,760 1310,760 "/>
<polygon id="BOX_61" points="1260,700 1260,730 1310,730 1310,700 "/>
<polygon id="BOX_62" points="1260,760 1260,730 1310,730 1310,760 "/>
<polygon id="BOX_63" points="1210,700 1210,730 1260,730 1260,700 "/>
<polygon id="BOX_64" points="1210,760 1210,730 1260,730 1260,760 "/>
<polygon id="BOX_65" points="1160,700 1210,700 1210,730 1160,730 "/>
<polygon id="BOX_66" points="1160,760 1160,730 1210,730 1210,760 "/>
<polygon id="BOX_67" points="1140,700 1140,730 1090,730 1090,700 "/>
<polygon id="BOX_68" points="1140,760 1090,760 1090,730 1140,730 "/>
<polygon id="BOX_69" points="1040,700 1090,700 1090,730 1040,730 "/>
<polygon id="BOX_70" points="1040,760 1040,730 1090,730 1090,760 "/>
<polygon id="BOX_71" points="990,700 990,730 1040,730 1040,700 "/>
<polygon id="BOX_72" points="990,760 990,730 1040,730 1040,760 "/>
<polygon id="BOX_73" points="940,700 990,700 990,730 940,730 "/>
<polygon id="BOX_74" points="940,760 940,730 990,730 990,760 "/>
<polygon id="BOX_75" points="930,700 880,700 880,730 930,730 "/>
<polygon id="BOX_76" points="930,760 880,760 880,730 930,730 "/>
<polygon id="BOX_77" points="830,730 830,700 880,700 880,730 "/>
<polygon id="BOX_78" points="830,760 830,730 880,730 880,760 "/>
<polygon id="BOX_79" points="780,700 780,730 830,730 830,700 "/>
<polygon id="BOX_80" points="780,760 830,760 830,730 780,730 "/>
<polygon id="BOX_81" points="730,700 780,700 780,730 730,730 "/>
<polygon id="BOX_82" points="730,760 780,760 780,730 730,730 "/>
<polygon id="SB_18" points="190,1150 190,1090 250,1090 250,1150 "/>
<polygon id="SB_17" points="250,1030 250,1090 190,1090 190,1030 "/>
<polygon id="SB_16" points="190,970 250,970 250,1030 190,1030 "/>
<polygon id="SB_15" points="250,970 250,900 190,900 190,970 "/>
<polygon id="N134" points="330,1120 490,1120 490,970 330,900 "/>
<polygon id="SWSS" points="2170,2360 2410,2330 2400,2270 2160,2300 "/>
<g id="Field">
	<rect x="802.7" y="1070" class="st0" width="1334.5" height="860"/>
	<g>
		<g>
			<rect x="834.5" y="1089.3" class="st1" width="1270.9" height="819.1"/>
			<rect x="834.5" y="1254.1" class="st2" width="197.7" height="487.2"/>
			<rect x="834.5" y="1387" class="st2" width="70.7" height="226"/>
			<circle class="st2" cx="1469.9" cy="1500" r="113"/>
			<g>
				<rect x="1907.8" y="1256.5" class="st2" width="197.7" height="487.2"/>
				<rect x="2034.7" y="1390.5" class="st2" width="70.7" height="226"/>
			</g>
			<line class="st2" x1="1469.9" y1="1909.5" x2="1469.9" y2="1090.5"/>
		</g>
	</g>
</g>
</svg>
