<?xml version="1.0" encoding="utf-8"?>
<!-- Generator: Adobe Illustrator 27.5.0, SVG Export Plug-In . SVG Version: 6.00 Build 0)  -->
<svg version="1.1" id="Map" xmlns="http://www.w3.org/2000/svg" xmlns:xlink="http://www.w3.org/1999/xlink" x="0px" y="0px"
	 viewBox="0 0 2770 2847" style="enable-background:new 0 0 2770 2847;" xml:space="preserve">
<style type="text/css">
	.st0{fill:#BBF9B2;}
	.st1{fill:#BBF9B2;stroke:#FCFCFC;stroke-width:5;stroke-miterlimit:10;}
	.st2{fill:none;stroke:#FCFCFC;stroke-width:5;stroke-miterlimit:10;}
</style>
<polygon id="_x32_8" points="510,800 580,760 660,950 640,960 550,880 520,910 450,860 "/>
<polygon id="_x32_9" points="650,740 740,740 730,950 660,950 580,760 "/>
<polygon id="_x33_0" points="740,740 920,740 920,950 730,950 "/>
<polygon id="_x33_1" points="920,740 1100,740 1100,950 920,950 "/>
<polygon id="_x33_2" points="1100,740 1280,740 1280,950 1100,950 "/>
<polygon id="_x33_3" points="1280,740 1460,740 1460,950 1280,950 "/>
<polygon id="_x33_6" points="1820,740 2010,740 2000,940 1820,940 "/>
<polygon id="_x33_5" points="1640,740 1820,740 1820,940 1640,950 "/>
<polygon id="_x33_4" points="1460,740 1640,740 1640,950 1460,950 "/>
<polygon id="_x33_7" points="2090,740 2150,760 2080,950 2040,940 2000,940 2010,740 "/>
<polygon id="_x31_" points="2150,760 2200,780 2290,850 2250,870 2250,890 2110,970 2080,950 "/>
<polygon id="_x32_01" points="2410,680 2520,810 2590,780 2620,840 2640,890 2410,940 2370,860 2310,810 "/>
<polygon id="_x32_" points="2350,1010 2140,1030 2290,940 2250,890 2250,870 2290,850 2330,920 "/>
<polygon id="_x33_" points="2140,1030 2350,1010 2350,1150 2140,1150 "/>
<polygon id="_x34_" points="2140,1150 2350,1150 2350,1330 2140,1330 "/>
<polygon id="_x35_" points="2140,1330 2350,1330 2350,1510 2140,1510 "/>
<polygon id="_x36_" points="2140,1510 2350,1510 2350,1690 2140,1690 "/>
<polygon id="_x38_" points="2140,1810 2350,1840 2330,1920 2290,1980 2200,1910 2130,1835 "/>
<polygon id="_x32_09" points="2170,2300 2130,2150 2220,2100 2320,2230 2230,2280 "/>
<polygon id="_x32_08" points="2410,1900 2640,1970 2590,2060 2520,2030 2490,2080 2410,2160 2310,2040 2380,1980 "/>
<polygon id="_x39_" points="2230,2050 2160,2090 2080,1890 2150,1960 2200,1910 2290,1980 "/>
<polygon id="_x31_1" points="1820,1900 2000,1900 2000,2110 1820,2110 "/>
<polygon id="_x31_2" points="1640,1900 1820,1900 1820,2110 1640,2110 "/>
<polygon id="_x31_0" points="2060,1900 2080,1890 2160,2090 2090,2110 2000,2110 2000,1900 "/>
<polygon id="_x31_3" points="1460,1940 1640,1940 1640,2110 1460,2110 "/>
<polygon id="_x31_4" points="1280,1940 1460,1940 1460,2110 1280,2110 "/>
<polygon id="_x31_5" points="1100,1940 1280,1940 1280,2110 1100,2110 "/>
<polygon id="_x31_6" points="920,1900 1100,1900 1100,2110 920,2110 "/>
<polygon id="_x31_7" points="740,1900 920,1900 920,2110 740,2110 "/>
<polygon id="_x31_8" points="570,2080 650,1880 660,1890 660,2050 740,2050 740,2110 690,2110 660,2110 "/>
<polygon id="_x31_9" points="450,1980 610,1850 650,1880 570,2080 "/>
<polygon id="_x32_1" points="390,1690 600,1690 600,1810 390,1840 "/>
<polygon id="_x32_2" points="390,1510 600,1510 600,1690 390,1690 "/>
<polygon id="_x32_3" points="390,1330 600,1330 600,1510 390,1510 "/>
<polygon id="_x32_4" points="390,1150 600,1150 600,1330 390,1330 "/>
<polygon id="_x32_5" points="390,1010 600,1030 600,1150 390,1150 "/>
<polygon id="_x32_6" points="610,990 600,1030 390,1010 410,930 450,860 520,910 530,900 "/>
<polygon id="_x32_27" points="330,680 430,810 370,860 330,940 100,880 120,840 150,780 220,810 250,760 "/>
<polygon id="_x32_26" points="330,940 310,1000 310,1060 60,1060 80,970 100,880 "/>
<polygon id="_x32_25" points="60,1060 310,1060 310,1240 110,1250 50,1220 60,1080 "/>
<polygon id="_x32_24" points="160,1250 310,1240 310,1420 160,1420 "/>
<polygon id="_x32_23" points="160,1420 310,1420 310,1600 160,1590 "/>
<polygon id="_x32_22" points="100,1590 310,1600 310,1780 60,1780 50,1620 "/>
<polygon id="_x32_21" points="310,1780 310,1840 330,1900 100,1960 70,1870 60,1780 "/>
<polygon id="_x32_20" points="160,2070 100,1960 330,1900 430,2040 330,2160 250,2080 220,2030 "/>
<polygon id="_x32_02" points="2410,940 2640,890 2670,970 2680,1060 2430,1060 2430,1000 "/>
<polygon id="_x32_04" points="2430,1240 2580,1240 2580,1420 2430,1420 "/>
<polygon id="_x32_05" points="2430,1420 2580,1420 2580,1600 2430,1600 "/>
<polygon id="_x32_06" points="2580,1590 2640,1590 2690,1620 2690,1760 2680,1780 2430,1780 2430,1600 2580,1600 "/>
<polygon id="_x32_07" points="2430,1780 2680,1780 2670,1870 2640,1970 2410,1900 2430,1840 "/>
<polygon id="_x34_10" points="2000,2530 2110,2530 2180,2510 2210,2630 2130,2670 2000,2720 "/>
<polygon id="_x34_12" points="1640,2530 1830,2530 1820,2770 1760,2780 1690,2790 1640,2790 "/>
<polygon id="_x34_13" points="1460,2530 1640,2530 1640,2790 1570,2790 1460,2800 "/>
<polygon id="_x34_14" points="1280,2530 1460,2530 1460,2800 1280,2800 "/>
<polygon id="_x34_19" points="440,2460 500,2500 560,2510 540,2560 490,2540 410,2500 "/>
<polygon id="_x32_19" points="520,2100 580,2140 610,2150 570,2300 520,2280 420,2230 "/>
<polygon id="_x34_18" points="630,2530 740,2530 740,2720 610,2670 530,2630 560,2510 "/>
<polygon id="_x32_18" points="610,2150 740,2160 740,2310 630,2310 570,2300 "/>
<polygon id="_x32_17" points="740,2160 920,2160 920,2310 740,2310 "/>
<polygon id="_x32_0" points="390,1840 600,1810 610,1850 450,1980 410,1920 "/>
<polygon id="_x34_15" points="1100,2790 1100,2530 1280,2530 1280,2800 1170,2790 "/>
<polygon id="_x34_17" points="910,2770 820,2750 740,2720 740,2530 920,2530 "/>
<polygon id="_x34_28" points="410,340 490,300 550,280 560,340 500,350 440,390 "/>
<polygon id="_x34_29" points="530,210 610,170 740,120 740,320 630,320 560,340 "/>
<polygon id="_x34_33" points="1280,50 1460,50 1460,320 1280,320 "/>
<polygon id="_x34_32" points="1110,60 1280,50 1280,320 1100,320 "/>
<polygon id="_x34_30" points="740,120 830,100 930,80 920,320 740,320 "/>
<polygon id="_x34_31" points="930,80 1020,70 1110,60 1100,320 920,320 "/>
<polygon id="_x34_34" points="1460,50 1640,60 1640,320 1460,320 "/>
<polygon id="_x32_29" points="630,530 740,530 740,690 660,690 610,700 570,550 "/>
<polygon id="_x32_30" points="740,530 920,530 920,692 740,690 "/>
<polygon id="_x32_36" points="1820,530 2000,530 2000,690 1820,690 "/>
<polygon id="_x34_38" points="2200,270 2260,300 2340,340 2310,390 2240,350 2180,340 "/>
<polygon id="_x34_36" points="1820,80 1910,100 2000,120 2000,320 1820,320 "/>
<polygon id="_x34_35" points="1640,60 1750,70 1820,80 1820,320 1640,320 "/>
<polygon id="_x34_37" points="2000,120 2120,170 2210,220 2180,340 2110,320 2000,320 "/>
<polygon id="_x32_16" points="920,2160 1100,2160 1100,2310 920,2310 "/>
<polygon id="_x32_15" points="1100,2160 1280,2160 1280,2310 1100,2310 "/>
<polygon id="_x32_14" points="1280,2160 1460,2160 1460,2310 1280,2310 "/>
<polygon id="_x32_13" points="1460,2160 1640,2160 1640,2310 1460,2310 "/>
<polygon id="_x32_12" points="1640,2160 1820,2160 1820,2310 1640,2310 "/>
<polygon id="_x32_11" points="1820,2160 2000,2160 2000,2310 1820,2310 "/>
<polygon id="_x34_16" points="920,2530 1100,2530 1100,2790 990,2780 910,2770 "/>
<polygon id="_x32_10" points="2000,2160 2090,2160 2130,2150 2170,2300 2110,2310 2000,2310 "/>
<polygon id="_x34_09" points="2180,2510 2320,2450 2330,2480 2190,2540 "/>
<polygon id="_x34_11" points="1830,2530 2000,2530 2000,2720 1900,2750 1820,2770 "/>
<polygon id="_x32_28" points="430,620 520,560 570,550 610,700 580,710 520,740 "/>
<polygon id="_x32_32" points="1190,530 1280,530 1280,690 1190,690 "/>
<polygon id="_x32_33" points="1280,530 1460,530 1460,690 1280,690 "/>
<polygon id="_x32_34" points="1460,530 1550,530 1550,690 1460,690 "/>
<polygon id="_x32_38" points="2170,550 2220,560 2310,620 2220,740 2130,700 "/>
<polygon id="SB_317" points="576,2344 632,2360 624,2416 560,2400 "/>
<polygon id="SB_316" points="664,2360 664,2416 624,2416 632,2360 "/>
<polygon id="SB_301" points="2177,2345 2191,2394 2156,2408 2142,2352 "/>
<polygon id="SB_302" points="2114,2359 2121,2415 2156,2408 2142,2352 "/>
<polygon id="SB_303" points="2086,2359 2086,2415 2121,2415 2114,2359 "/>
<polygon id="SB_304" points="2051,2359 2051,2415 2086,2415 2086,2359 "/>
<polygon id="SB_305" points="2016,2359 2051,2359 2051,2415 2016,2415 "/>
<polygon id="SB_306" points="1981,2359 2016,2359 2016,2415 1981,2415 "/>
<polygon id="SB_307" points="1715,2359 1981,2359 1981,2415 1715,2415 "/>
<polygon id="SB_314" points="1106,2359 1106,2415 847,2415 847,2359 "/>
<polygon id="SB_315" points="665,2359 847,2359 847,2415 665,2415 "/>
<polygon id="SB_318" points="427,525 441,553 511,511 497,483 "/>
<polygon id="SB_319" points="539,504 511,511 497,483 530,470 "/>
<polygon id="SB_320" points="574,497 539,504 532,469 567,462 "/>
<polygon id="SB_321" points="595,455 602,490 574,497 567,462 "/>
<polygon id="SB_322" points="630,448 630,483 602,490 595,455 "/>
<polygon id="SB_323" points="658,448 658,483 630,483 630,448 "/>
<polygon id="SB_324" points="693,448 693,483 658,483 658,448 "/>
<polygon id="SB_325" points="728,448 728,483 693,483 693,448 "/>
<polygon id="SB_326" points="763,448 763,483 728,483 728,448 "/>
<polygon id="SB_327" points="805,448 805,483 763,483 763,448 "/>
<polygon id="SB_328" points="854,448 854,483 805,483 805,448 "/>
<polygon id="SB_329" points="896,448 896,483 854,483 854,448 "/>
<polygon id="SB_330" points="938,448 938,483 896,483 896,448 "/>
<polygon id="SB_331" points="987,448 987,483 938,483 938,448 "/>
<polygon id="SB_332" points="1036,448 1036,483 987,483 987,448 "/>
<polygon id="SB_333" points="1078,448 1078,483 1036,483 1036,448 "/>
<polygon id="SB_334" points="1120,448 1120,483 1078,483 1078,448 "/>
<polygon id="SB_335" points="1169,448 1169,483 1120,483 1120,448 "/>
<polygon id="SB_336" points="1211,448 1211,483 1169,483 1169,448 "/>
<polygon id="SB_337" points="1260,448 1260,483 1211,483 1211,448 "/>
<polygon id="SB_338" points="1302,448 1302,483 1260,483 1260,448 "/>
<polygon id="SB_339" points="1344,448 1344,483 1302,483 1302,448 "/>
<polygon id="SB_340" points="1393,448 1393,483 1344,483 1344,448 "/>
<polygon id="SB_341" points="1442,448 1442,483 1393,483 1393,448 "/>
<polygon id="SB_342" points="1484,448 1484,483 1442,483 1442,448 "/>
<polygon id="SB_343" points="1526,448 1526,483 1484,483 1484,448 "/>
<polygon id="SB_344" points="1575,448 1575,483 1526,483 1526,448 "/>
<polygon id="SB_345" points="1617,448 1617,483 1575,483 1575,448 "/>
<polygon id="SB_346" points="1666,448 1666,483 1617,483 1617,448 "/>
<polygon id="SB_347" points="1708,448 1708,483 1666,483 1666,448 "/>
<polygon id="SB_348" points="1757,448 1757,483 1708,483 1708,448 "/>
<polygon id="SB_349" points="1799,448 1799,483 1757,483 1757,448 "/>
<polygon id="SB_350" points="1848,448 1848,483 1799,483 1799,448 "/>
<polygon id="SB_351" points="1890,448 1890,483 1848,483 1848,448 "/>
<polygon id="SB_352" points="1932,448 1932,483 1890,483 1890,448 "/>
<polygon id="SB_353" points="1974,448 1974,483 1932,483 1932,448 "/>
<polygon id="SB_354" points="2016,448 2016,483 1974,483 1974,448 "/>
<polygon id="SB_355" points="2051,448 2051,483 2016,483 2016,448 "/>
<polygon id="SB_356" points="2086,448 2086,483 2051,483 2051,448 "/>
<polygon id="SB_357" points="2114,448 2114,483 2086,483 2086,448 "/>
<polygon id="SB_358" points="2149,455 2142,490 2114,483 2114,448 "/>
<polygon id="SB_359" points="2184,462 2170,497 2142,490 2149,455 "/>
<polygon id="SB_360" points="2220,472 2184,462 2170,497 2204,508 "/>
<polygon id="SB_361" points="2247,483 2233,518 2204,508 2220,472 "/>
<polygon id="SB_362" points="2317,525 2303,553 2233,518 2247,483 "/>
<polygon id="BOX_1" points="960,664 960,688 920,688 920,664 "/>
<polygon id="BOX_2" points="960,644 960,664 920,664 920,644 "/>
<polygon id="BOX_3" points="960,624 960,644 920,644 920,624 "/>
<polygon id="BOX_4" points="960,604 960,624 920,624 920,604 "/>
<polygon id="BOX_5" points="960,584 960,604 920,604 920,584 "/>
<polygon id="BOX_6" points="960,564 960,584 920,584 920,564 "/>
<polygon id="BOX_7" points="960,532 960,564 920,564 920,532 "/>
<polygon id="BOX_8" points="1004,664 1004,688 960,688 960,664 "/>
<polygon id="BOX_9" points="1004,644 1004,664 960,664 960,644 "/>
<polygon id="BOX_10" points="1004,624 1004,644 960,644 960,624 "/>
<polygon id="BOX_11" points="1004,604 1004,624 960,624 960,604 "/>
<polygon id="BOX_12" points="1004,584 1004,604 960,604 960,584 "/>
<polygon id="BOX_13" points="1004,564 1004,584 960,584 960,564 "/>
<polygon id="BOX_14" points="1004,532 1004,564 960,564 960,532 "/>
<polygon id="BOX_15" points="1052,664 1052,688 1004,688 1004,664 "/>
<polygon id="BOX_16" points="1052,644 1052,664 1004,664 1004,644 "/>
<polygon id="BOX_17" points="1052,624 1052,644 1004,644 1004,624 "/>
<polygon id="BOX_18" points="1004,604 1004,624 1052,624 1052,604 "/>
<polygon id="BOX_19" points="1052,584 1052,604 1004,604 1004,584 "/>
<polygon id="BOX_20" points="1052,564 1052,584 1004,584 1004,564 "/>
<polygon id="BOX_21" points="1052,532 1052,564 1004,564 1004,532 "/>
<polygon id="BOX_22" points="1100,664 1100,688 1052,688 1052,664 "/>
<polygon id="BOX_23" points="1100,644 1100,664 1052,664 1052,644 "/>
<polygon id="BOX_24" points="1100,624 1100,644 1052,644 1052,624 "/>
<polygon id="BOX_25" points="1100,604 1100,624 1052,624 1052,604 "/>
<polygon id="BOX_26" points="1100,584 1100,604 1052,604 1052,584 "/>
<polygon id="BOX_27" points="1100,564 1100,584 1052,584 1052,564 "/>
<polygon id="BOX_28" points="1100,532 1100,564 1052,564 1052,532 "/>
<polygon id="BOX_29" points="1140,664 1140,688 1100,688 1100,664 "/>
<polygon id="BOX_30" points="1140,644 1140,664 1100,664 1100,644 "/>
<polygon id="BOX_31" points="1140,624 1140,644 1100,644 1100,624 "/>
<polygon id="BOX_32" points="1140,604 1140,624 1100,624 1100,604 "/>
<polygon id="BOX_33" points="1140,584 1140,604 1100,604 1100,584 "/>
<polygon id="BOX_34" points="1140,564 1140,584 1100,584 1100,564 "/>
<polygon id="BOX_35" points="1140,532 1140,564 1100,564 1100,532 "/>
<polygon id="BOX_36" points="1188,664 1188,688 1140,688 1140,664 "/>
<polygon id="BOX_37" points="1188,644 1188,664 1140,664 1140,644 "/>
<polygon id="BOX_38" points="1188,624 1188,644 1140,644 1140,624 "/>
<polygon id="BOX_39" points="1188,604 1188,624 1140,624 1140,604 "/>
<polygon id="BOX_40" points="1188,584 1188,604 1140,604 1140,584 "/>
<polygon id="BOX_41" points="1188,564 1188,584 1140,584 1140,564 "/>
<polygon id="BOX_42" points="1188,532 1188,564 1140,564 1140,532 "/>
<polygon id="BOX_43" points="1600,664 1600,688 1552,688 1552,664 "/>
<polygon id="BOX_44" points="1600,644 1600,664 1552,664 1552,644 "/>
<polygon id="BOX_45" points="1600,624 1600,644 1552,644 1552,624 "/>
<polygon id="BOX_46" points="1600,604 1600,624 1552,624 1552,604 "/>
<polygon id="BOX_47" points="1600,584 1600,604 1552,604 1552,584 "/>
<polygon id="BOX_48" points="1600,564 1600,584 1552,584 1552,564 "/>
<polygon id="BOX_49" points="1600,532 1600,564 1552,564 1552,532 "/>
<polygon id="BOX_50" points="1644,664 1644,688 1600,688 1600,664 "/>
<polygon id="BOX_51" points="1644,644 1644,664 1600,664 1600,644 "/>
<polygon id="BOX_52" points="1644,624 1644,644 1600,644 1600,624 "/>
<polygon id="BOX_53" points="1644,604 1644,624 1600,624 1600,604 "/>
<polygon id="BOX_54" points="1644,584 1644,604 1600,604 1600,584 "/>
<polygon id="BOX_55" points="1644,564 1644,584 1600,584 1600,564 "/>
<polygon id="BOX_56" points="1644,532 1644,564 1600,564 1600,532 "/>
<polygon id="BOX_57" points="1692,688 1644,688 1644,664 1692,664 "/>
<polygon id="BOX_58" points="1692,644 1692,664 1644,664 1644,644 "/>
<polygon id="BOX_59" points="1692,624 1692,644 1644,644 1644,624 "/>
<polygon id="BOX_60" points="1692,604 1692,624 1644,624 1644,604 "/>
<polygon id="BOX_61" points="1692,584 1692,604 1644,604 1644,584 "/>
<polygon id="BOX_62" points="1692,564 1692,584 1644,584 1644,564 "/>
<polygon id="BOX_63" points="1692,532 1692,564 1644,564 1644,532 "/>
<polygon id="BOX_64" points="1740,664 1740,688 1692,688 1692,664 "/>
<polygon id="BOX_65" points="1740,644 1692,644 1692,664 1740,664 "/>
<polygon id="BOX_66" points="1740,624 1740,644 1692,644 1692,624 "/>
<polygon id="BOX_67" points="1740,604 1740,624 1692,624 1692,604 "/>
<polygon id="BOX_68" points="1740,584 1740,604 1692,604 1692,584 "/>
<polygon id="BOX_69" points="1740,564 1740,584 1692,584 1692,564 "/>
<polygon id="BOX_70" points="1740,532 1740,564 1692,564 1692,532 "/>
<polygon id="BOX_71" points="1780,664 1780,688 1740,688 1740,664 "/>
<polygon id="BOX_72" points="1780,644 1780,664 1740,664 1740,644 "/>
<polygon id="BOX_73" points="1780,624 1780,644 1740,644 1740,624 "/>
<polygon id="BOX_74" points="1780,604 1780,624 1740,624 1740,604 "/>
<polygon id="BOX_75" points="1780,584 1780,604 1740,604 1740,584 "/>
<polygon id="BOX_76" points="1780,564 1780,584 1740,584 1740,564 "/>
<polygon id="BOX_77" points="1780,532 1780,564 1740,564 1740,532 "/>
<polygon id="BOX_78" points="1820,664 1820,688 1780,688 1780,664 "/>
<polygon id="BOX_79" points="1820,644 1820,664 1780,664 1780,644 "/>
<polygon id="BOX_80" points="1780,624 1820,624 1820,644 1780,644 "/>
<polygon id="BOX_81" points="1780,604 1820,604 1820,624 1780,624 "/>
<polygon id="BOX_82" points="1780,584 1820,584 1820,604 1780,604 "/>
<polygon id="BOX_83" points="1780,564 1820,564 1820,584 1780,584 "/>
<polygon id="BOX_84" points="1780,532 1820,532 1820,564 1780,564 "/>
<polygon id="_x37_" points="2350,1695 2350,1840 2140,1810 2140,1690 "/>
<polygon id="_x32_03" points="2430,1060 2680,1060 2685,1080 2685,1220 2640,1250 2580,1250 2580,1240 2430,1240 "/>
<polygon id="_x32_37" points="2000,530 2000,690 2085,690 2130,700 2170,550 2110,535 "/>
<g id="Field">
	<rect x="772" y="1028.5" class="st0" width="1225.9" height="790"/>
	<g>
		<g>
			<rect x="801.2" y="1046.2" class="st1" width="1167.5" height="752.4"/>
			<rect x="801.2" y="1197.6" class="st2" width="181.6" height="447.5"/>
			<rect x="801.2" y="1319.7" class="st2" width="64.9" height="207.6"/>
			<circle class="st2" cx="1384.9" cy="1423.5" r="103.8"/>
			<g>
				<rect x="1787.1" y="1199.8" class="st2" width="181.6" height="447.5"/>
				<rect x="1903.8" y="1322.9" class="st2" width="64.9" height="207.6"/>
			</g>
			<line class="st2" x1="1384.9" y1="1799.7" x2="1384.9" y2="1047.3"/>
		</g>
	</g>
</g>
</svg>
