<?xml version="1.0" encoding="utf-8"?>
<!-- Generator: Adobe Illustrator 27.5.0, SVG Export Plug-In . SVG Version: 6.00 Build 0)  -->
<svg version="1.1" id="Map" xmlns="http://www.w3.org/2000/svg" xmlns:xlink="http://www.w3.org/1999/xlink" x="0px" y="0px"
	 viewBox="0 0 3001.9 2602.4" style="enable-background:new 0 0 3001.9 2602.4;" xml:space="preserve">
<style type="text/css">
	.st0{fill:#BBF9B2;}
	.st1{fill:#BBF9B2;stroke:#FCFCFC;stroke-width:5;stroke-miterlimit:10;}
	.st2{fill:none;stroke:#FCFCFC;stroke-width:5;stroke-miterlimit:10;}
</style>
<polygon id="_x30_1" points="2488.4,1236.1 2760.4,1212.1 2824.4,1146.1 2800.4,1044.1 2784.4,1004.1 2456.4,1116.1 2472.4,1148.1 
	2480.4,1196.1 "/>
<polygon id="_x30_2" points="2440.4,1076.1 2456.4,1116.1 2784.4,1004.1 2760.4,940.1 2720.4,860.1 2696.4,812.1 2400.4,988.1 
	2424.4,1036.1 "/>
<polygon id="_x30_3" points="2312.4,876.1 2472.4,732.1 2568.4,644.1 2600.4,676.1 2656.4,748.1 2696.4,812.1 2400.4,988.1 
	2376.4,956.1 "/>
<polygon id="_x30_4" points="2312.4,876.1 2568.4,644.1 2520.4,596.1 2448.4,532.1 2408.4,500.1 2200.4,780.1 2240.4,812.1 
	2304.4,740.1 2344.4,772.1 2280.4,844.1 "/>
<polygon id="_x30_5" points="2056.4,684.1 2096.4,708.1 2160.4,748.1 2200.4,780.1 2408.4,500.1 2344.4,452.1 2264.4,404.1 
	2224.4,380.1 "/>
<polygon id="_x30_6" points="1912.4,620.1 1952.4,636.1 2024.4,668.1 2056.4,684.1 2224.4,380.1 2176.4,356.1 2072.4,308.1 
	2032.4,292.1 "/>
<polygon id="_x30_7" points="1752.4,572.1 1784.4,580.1 1864.4,604.1 1912.4,620.1 2032.4,292.1 1936.4,260.1 1880.4,244.1 
	1832.4,236.1 "/>
<polygon id="_x30_8" points="1592.4,548.1 1624.4,548.1 1712.4,564.1 1752.4,572.1 1832.4,236.1 1664.4,212.1 1664.4,228.1 
	1616.4,228.1 "/>
<polygon id="_x30_9" points="1424.4,540.1 1464.4,540.1 1544.4,540.1 1592.4,540.1 1616.4,228.1 1408.4,228.1 "/>
<polygon id="_x31_0" points="1344.4,236.1 1408.4,228.1 1424.4,540.1 1312.4,556.1 1256.4,572.1 1192.4,228.1 1336.4,204.1 "/>
<polygon id="_x31_1" points="1256.4,572.1 1216.4,580.1 1176.4,588.1 1136.4,604.1 1096.4,620.1 984.4,292.1 1192.4,228.1 "/>
<polygon id="_x31_2" points="1056.4,636.1 984.4,668.1 952.4,684.1 784.4,380.1 984.4,292.1 1096.4,620.1 "/>
<polygon id="_x31_3" points="904.4,708.1 840.4,748.1 808.4,772.1 608.4,492.1 784.4,380.1 952.4,684.1 "/>
<polygon id="_x31_4" points="608.4,492.1 560.4,532.1 480.4,596.1 440.4,636.1 696.4,868.1 720.4,844.1 656.4,780.1 712.4,732.1 
	776.4,796.1 808.4,772.1 "/>
<polygon id="_x31_5" points="696.4,868.1 664.4,900.1 632.4,948.1 608.4,980.1 312.4,804.1 352.4,748.1 400.4,684.1 440.4,636.1 "/>
<polygon id="_x31_6" points="608.4,980.1 584.4,1020.1 560.4,1076.1 552.4,1108.1 336.4,1036.1 368.4,964.1 336.4,948.1 
	280.4,852.1 312.4,804.1 "/>
<polygon id="_x31_7" points="304.4,1220.1 520.4,1244.1 528.4,1196.1 536.4,1156.1 552.4,1108.1 336.4,1036.1 320.4,1092.1 
	304.4,1172.1 "/>
<polygon id="_x31_8" points="520.4,1380.1 512.4,1348.1 512.4,1284.1 520.4,1244.1 304.4,1220.1 296.4,1268.1 296.4,1364.1 
	304.4,1404.1 "/>
<polygon id="_x31_9" points="528.4,1420.1 536.4,1476.1 544.4,1516.1 344.4,1588.1 328.4,1548.1 312.4,1468.1 304.4,1404.1 
	520.4,1380.1 "/>
<polygon id="_x32_0" points="288.4,1788.1 312.4,1820.1 608.4,1636.1 592.4,1612.1 560.4,1548.1 544.4,1516.1 344.4,1588.1 
	376.4,1660.1 336.4,1676.1 "/>
<polygon id="_x32_1" points="688.4,1748.1 440.4,1980.1 312.4,1820.1 608.4,1636.1 624.4,1676.1 664.4,1724.1 "/>
<polygon id="_x32_2" points="688.4,1748.1 720.4,1780.1 656.4,1852.1 712.4,1900.1 776.4,1828.1 808.4,1852.1 600.4,2124.1 
	552.4,2092.1 488.4,2036.1 440.4,1980.1 "/>
<polygon id="_x32_3" points="944.4,1940.1 912.4,1924.1 840.4,1876.1 808.4,1852.1 600.4,2124.1 776.4,2244.1 "/>
<polygon id="_x32_4" points="944.4,1940.1 776.4,2244.1 976.4,2332.1 1096.4,2012.1 1048.4,1996.1 984.4,1964.1 "/>
<polygon id="_x32_5" points="1248.4,2060.1 1176.4,2388.1 976.4,2332.1 1096.4,2012.1 1136.4,2028.1 1208.4,2052.1 "/>
<polygon id="_x32_6" points="1416.4,2084.1 1392.4,2404.1 1280.4,2388.1 1280.4,2412.1 1176.4,2388.1 1248.4,2060.1 1296.4,2068.1 
	"/>
<polygon id="_x32_7" points="1416.4,2084.1 1472.4,2084.1 1544.4,2084.1 1584.4,2084.1 1600.4,2388.1 1392.4,2388.1 "/>
<polygon id="_x32_8" points="1744.4,2060.1 1816.4,2396.1 1720.4,2412.1 1712.4,2380.1 1600.4,2388.1 1584.4,2084.1 1712.4,2068.1 
	"/>
<polygon id="_x32_9" points="1904.4,2012.1 2024.4,2340.1 1976.4,2356.1 1888.4,2380.1 1816.4,2396.1 1744.4,2060.1 1792.4,2052.1 
	1872.4,2028.1 "/>
<polygon id="_x33_0" points="2056.4,1948.1 2216.4,2252.1 2024.4,2340.1 1904.4,2012.1 1952.4,1996.1 "/>
<polygon id="_x33_1" points="2192.4,1860.1 2392.4,2140.1 2216.4,2252.1 2056.4,1948.1 2096.4,1924.1 "/>
<polygon id="_x33_2" points="2560.4,1988.1 2392.4,2140.1 2192.4,1860.1 2240.4,1820.1 2304.4,1892.1 2352.4,1852.1 2288.4,1780.1 
	2312.4,1756.1 "/>
<polygon id="_x33_3" points="2400.4,1644.1 2344.4,1724.1 2312.4,1756.1 2560.4,1988.1 2696.4,1820.1 "/>
<polygon id="_x33_4" points="2456.4,1524.1 2776.4,1636.1 2696.4,1820.1 2400.4,1644.1 2424.4,1604.1 "/>
<polygon id="_x33_5" points="2488.4,1388.1 2760.4,1420.1 2816.4,1476.1 2776.4,1636.1 2456.4,1524.1 2472.4,1484.1 "/>
<polygon id="_x33_6" points="2752.4,1212.1 2760.4,1268.1 2760.4,1364.1 2752.4,1420.1 2488.4,1388.1 2496.4,1300.1 2488.4,1236.1 
	"/>
<polygon id="HOS_B3" points="136.3,1105.3 143.2,1050.3 150,1015.9 163.8,954 191.3,871.5 218.8,809.6 253.2,747.8 301.3,679 
	356.3,617.1 404.4,569 452.5,527.8 431.9,507.1 356.3,575.9 294.4,644.6 246.3,706.5 205,775.3 163.8,864.6 136.3,947.1 
	115.7,1036.5 108.8,1105.3 "/>
<polygon id="HOS_C2" points="1353.2,122.1 1263.8,129 1174.4,142.8 1085,163.4 988.8,190.9 913.2,218.4 851.3,245.9 775.7,287.1 
	706.9,328.4 610.7,397.1 596.9,376.5 734.4,280.3 851.3,218.4 913.2,190.9 988.8,163.4 1057.5,142.8 1174.4,115.3 1263.8,101.5 
	1353.2,94.6 "/>
<rect id="SB_1" x="1566.3" y="94.6" width="61.9" height="27.5"/>
<rect id="SB_2" x="1628.2" y="94.6" width="61.9" height="27.5"/>
<polygon id="SB_3" points="1751.9,101.5 1745,129 1690,122.1 1690,94.6 "/>
<polygon id="SB_4" points="1813.8,108.4 1806.9,135.9 1745,129 1751.9,101.5 "/>
<rect id="SB_5" x="1823.6" y="100.8" transform="matrix(0.2425 -0.9701 0.9701 0.2425 1266.7964 1880.7001)" width="28.3" height="56.7"/>
<polygon id="SB_6" points="1930.7,135.9 1923.8,163.4 1861.9,149.6 1868.8,122.1 "/>
<rect id="SB_7" x="1940.5" y="128.4" transform="matrix(0.2425 -0.9701 0.9701 0.2425 1328.5032 2015.0059)" width="28.3" height="56.7"/>
<polygon id="SB_8" points="2047.5,170.3 2033.8,197.8 1978.8,177.1 1985.7,149.6 "/>
<polygon id="SB_9" points="2102.5,190.9 2088.8,218.4 2033.8,197.8 2047.5,170.3 "/>
<rect id="SB_10" x="2107.7" y="187.8" transform="matrix(0.4472 -0.8944 0.8944 0.4472 978.1368 2019.7076)" width="30.7" height="61.5"/>
<rect id="SB_11" x="2162.7" y="215.3" transform="matrix(0.4472 -0.8944 0.8944 0.4472 983.941 2084.0999)" width="30.7" height="61.5"/>
<rect id="SB_12" x="2217.7" y="242.8" transform="matrix(0.4472 -0.8944 0.8944 0.4472 989.7455 2148.4924)" width="30.7" height="61.5"/>
<polygon id="SB_13" points="2301.9,328.4 2315.7,300.9 2267.5,273.4 2253.8,300.9 "/>
<polygon id="SB_14" points="2370.7,342.1 2356.9,369.6 2301.9,328.4 2315.7,300.9 "/>
<polygon id="SB_15" points="2418.8,376.5 2398.2,404 2356.9,369.6 2370.7,342.1 "/>
<polygon id="SB_16" points="2460,410.9 2432.5,431.5 2398.2,404 2418.8,376.5 "/>
<polygon id="SB_17" points="2611.3,541.5 2645.7,569 2625,589.6 2597.5,562.1 "/>
<rect id="SB_18" x="2637.8" y="572.2" transform="matrix(0.7071 -0.7071 0.7071 0.7071 355.0865 2050.2722)" width="29.2" height="48.6"/>
<rect id="SB_19" x="2668.9" y="608" transform="matrix(0.7071 -0.7071 0.7071 0.7071 342.3051 2081.2729)" width="29.2" height="38.9"/>
<polygon id="SB_20" points="2728.2,658.4 2707.5,679 2686.9,651.5 2707.5,630.9 "/>
<polygon id="SB_21" points="2755.7,692.8 2728.2,706.5 2707.5,679 2728.2,658.4 "/>
<polygon id="SB_22" points="2783.2,740.9 2755.7,754.6 2728.2,706.5 2755.7,692.8 "/>
<polygon id="SB_23" points="2810.7,795.9 2783.2,802.8 2755.7,754.6 2783.2,740.9 "/>
<polygon id="SB_24" points="2838.2,850.9 2810.7,857.8 2783.2,802.8 2810.7,795.9 "/>
<polygon id="SB_25" points="2858.8,905.9 2824.4,912.8 2810.7,857.8 2838.2,850.9 "/>
<polygon id="SB_26" points="2872.5,967.8 2838.2,967.8 2824.4,912.8 2858.8,905.9 "/>
<polygon id="SB_27" points="2886.3,1022.8 2852.1,1030.2 2838.2,967.8 2872.5,967.8 "/>
<polygon id="SB_28" points="2858.8,1559 2845,1627.8 2824.4,1696.5 2796.9,1765.3 2790,1779 2824.4,1792.8 2851.9,1724 
	2872.5,1662.1 2886.3,1607.1 2893.2,1565.9 "/>
<polygon id="SB_32" points="2762.5,1827.1 2796.9,1847.8 2824.4,1792.8 2790,1779 "/>
<polygon id="SB_33" points="2735,1875.3 2762.5,1827.1 2796.9,1847.8 2769.4,1895.9 "/>
<polygon id="SB_34" points="2707.5,1909.6 2735,1930.3 2769.4,1895.9 2735,1875.3 "/>
<polygon id="SB_35" points="2707.5,1964.6 2735,1930.3 2707.5,1909.6 2680,1944 "/>
<polygon id="SB_36" points="2652.5,1978.4 2680,1999 2707.5,1964.6 2680,1944 "/>
<polygon id="SB_37" points="2625,2005.9 2652.5,2033.4 2680,1999 2652.5,1978.4 "/>
<polygon id="SB_38" points="2590.7,2033.4 2618.2,2060.9 2652.5,2033.4 2624.9,2007.2 "/>
<polygon id="SB_39" points="2460,2170.9 2480.7,2191.5 2446.3,2219 2425.7,2198.4 "/>
<polygon id="SB_40" points="2398.2,2260.3 2446.3,2219 2425.7,2198.4 2377.5,2232.8 "/>
<polygon id="SB_41" points="2329.4,2267.1 2350,2294.6 2398.2,2260.3 2377.5,2232.8 "/>
<polygon id="SB_42" points="2295,2329 2350,2294.6 2329.4,2267.1 2281.3,2301.5 "/>
<rect id="SB_43" x="2171.5" y="2327.3" transform="matrix(0.8944 -0.4472 0.4472 0.8944 -811.9089 1245.9381)" width="123" height="30.7"/>
<polygon id="SB_45" points="2130,2411.5 2185,2384 2171.3,2356.5 2116.3,2377.1 "/>
<polygon id="SB_46" points="2075,2432.1 2061.3,2397.8 2116.3,2377.1 2130,2411.5 "/>
<polygon id="SB_47" points="2006.3,2418.4 2013.2,2452.8 2075,2432.1 2061.3,2397.8 "/>
<polygon id="SB_48" points="1889.4,2445.9 2006.3,2418.4 2013.2,2452.8 1896.3,2480.3 "/>
<polygon id="SB_50" points="1827.5,2459.6 1889.4,2445.9 1896.3,2480.3 1834.4,2494 "/>
<polygon id="SB_51" points="1772.5,2500.9 1834.4,2494 1827.5,2459.6 1772.5,2466.5 "/>
<polygon id="SB_52" points="1710.7,2473.4 1772.5,2466.5 1772.5,2500.9 1710.7,2507.8 "/>
<rect id="VIP_53" x="1635" y="2473.4" width="75.6" height="34.4"/>
<rect id="VIP_54" x="1291.3" y="2473.4" width="68.8" height="34.4"/>
<polygon id="SB_55" points="1236.3,2466.5 1291.3,2473.4 1291.3,2507.8 1229.4,2500.9 "/>
<polygon id="SB_56" points="1174.4,2459.6 1236.3,2466.5 1229.4,2500.9 1167.5,2494 "/>
<polygon id="SB_57" points="1119.4,2452.8 1174.4,2459.6 1167.5,2494 1112.5,2480.3 "/>
<polygon id="SB_58" points="1050.7,2466.5 1057.5,2439 1119.4,2452.8 1112.5,2480.3 "/>
<polygon id="SB_59" points="988.8,2445.9 995.7,2418.4 1057.5,2439 1050.7,2466.5 "/>
<polygon id="SB_60" points="933.8,2432.1 988.8,2445.9 995.7,2418.4 947.5,2404.6 "/>
<polygon id="SB_61" points="885.7,2384 947.5,2404.6 933.8,2432.1 871.9,2411.5 "/>
<rect id="SB_62" x="835.8" y="2353.3" transform="matrix(0.4472 -0.8944 0.8944 0.4472 -1661.8207 2079.1484)" width="30.7" height="61.5"/>
<rect id="SB_63" x="780.8" y="2325.8" transform="matrix(0.4472 -0.8944 0.8944 0.4472 -1667.625 2014.7561)" width="30.7" height="61.5"/>
<polygon id="SB_64" points="727.5,2301.5 775.7,2329 761.9,2356.5 713.8,2329 "/>
<polygon id="SB_65" points="672.5,2267.1 727.5,2301.5 713.8,2329 658.8,2294.6 "/>
<polygon id="SB_66" points="624.4,2232.8 672.5,2267.1 658.8,2294.6 603.8,2253.4 "/>
<polygon id="SB_67" points="576.3,2198.4 624.4,2232.8 603.8,2253.4 555.7,2219 "/>
<polygon id="SB_68" points="507.5,2136.5 576.3,2198.4 555.7,2219 486.9,2157.1 "/>
<polyline id="HOS_B2" points="356.3,2026.5 294.4,1957.8 246.3,1895.9 205,1827.1 163.8,1737.8 136.3,1655.3 115.7,1565.9 
	108.8,1497.1 136.3,1497.1 143.2,1552.1 150,1586.5 163.8,1648.4 191.3,1730.9 218.8,1792.8 253.2,1854.6 301.3,1923.4 
	376.9,2005.9 "/>
<g id="Field">
	<rect x="859.4" y="893.8" class="st0" width="1299.4" height="837.4"/>
	<g>
		<g>
			<rect x="890.4" y="912.6" class="st1" width="1237.5" height="797.5"/>
			<rect x="890.4" y="1073" class="st2" width="192.5" height="474.4"/>
			<rect x="890.4" y="1202.5" class="st2" width="68.8" height="220"/>
			<circle class="st2" cx="1509.1" cy="1312.5" r="110"/>
			<g>
				<rect x="1935.4" y="1075.3" class="st2" width="192.5" height="474.4"/>
				<rect x="2059.1" y="1206" class="st2" width="68.8" height="220"/>
			</g>
			<line class="st2" x1="1509.1" y1="1711.2" x2="1509.1" y2="913.7"/>
		</g>
	</g>
</g>
</svg>
